{
copyright = "Copyright \U00A9 2011 by Eric A Meyer. All rights reserved.";
date = "2011-12-09 02:32:38 +0000";
designer = "Eric A Meyer";
designerURL = "http://eric.andmeyer.com/";
familyName = "Green Mud JJ";
fontMaster = (
{
alignmentZones = (
"{700, 16}",
"{600, 16}",
"{400, 16}",
"{0, -15}",
"{-300, -16}"
);
ascender = 700;
capHeight = 600;
descender = "-300";
horizontalStems = (
33
);
id = "B2224B7D-3358-49DE-B033-78E3556D2134";
italicAngle = 20;
verticalStems = (
33
);
xHeight = 400;
}
);
glyphs = (
{
glyphname = A;
layers = (
{
layerId = "B2224B7D-3358-49DE-B033-78E3556D2134";
name = Regular;
paths = (
{
closed = 1;
nodes = (
"351 323 LINE",
"340 321 OFFCURVE",
"330 318 OFFCURVE",
"320 315 CURVE",
"324 343 OFFCURVE",
"329 371 OFFCURVE",
"332 397 CURVE SMOOTH",
"339 439 OFFCURVE",
"355 538 OFFCURVE",
"358 579 CURVE SMOOTH",
"362 620 OFFCURVE",
"321 622 OFFCURVE",
"299 592 CURVE SMOOTH",
"290 582 OFFCURVE",
"255 522 OFFCURVE",
"248 508 CURVE SMOOTH",
"200 417 OFFCURVE",
"-41 12 OFFCURVE",
"-49 0 CURVE",
"-22 -19 LINE",
"-19 -12 OFFCURVE",
"59 117 OFFCURVE",
"139 249 CURVE",
"172 243 OFFCURVE",
"222 250 OFFCURVE",
"277 266 CURVE",
"260 163 OFFCURVE",
"247 62 OFFCURVE",
"254 -13 CURVE",
"288 -13 LINE",
"280 63 OFFCURVE",
"296 171 OFFCURVE",
"313 277 CURVE",
"330 281 OFFCURVE",
"347 286 OFFCURVE",
"362 291 CURVE"
);
},
{
closed = 1;
nodes = (
"283 302 OFFCURVE",
"214 276 OFFCURVE",
"157 280 CURVE",
"214 376 OFFCURVE",
"269 469 OFFCURVE",
"291 511 CURVE SMOOTH",
"298 525 OFFCURVE",
"314 560 OFFCURVE",
"322 560 CURVE SMOOTH",
"328 560 OFFCURVE",
"306 445 OFFCURVE",
"299 405 CURVE SMOOTH",
"295 372 OFFCURVE",
"288 337 OFFCURVE",
"284 303 CURVE"
);
}
);
width = 401;
}
);
unicode = 0041;
},
{
glyphname = B;
layers = (
{
layerId = "B2224B7D-3358-49DE-B033-78E3556D2134";
name = Regular;
paths = (
{
closed = 1;
nodes = (
"148 569 LINE",
"150 569 OFFCURVE",
"153 569 OFFCURVE",
"155 569 CURVE",
"126 373 OFFCURVE",
"45 165 OFFCURVE",
"-21 4 CURVE",
"7 -8 LINE",
"9 -4 OFFCURVE",
"10 0 OFFCURVE",
"12 4 CURVE",
"61 -6 OFFCURVE",
"116 10 OFFCURVE",
"156 30 CURVE SMOOTH",
"209 57 OFFCURVE",
"251 99 OFFCURVE",
"276 147 CURVE SMOOTH",
"324 242 OFFCURVE",
"265 277 OFFCURVE",
"242 323 CURVE",
"234 348 OFFCURVE",
"307 399 OFFCURVE",
"338 421 CURVE SMOOTH",
"379 449 OFFCURVE",
"413 473 OFFCURVE",
"423 496 CURVE SMOOTH",
"445 547 OFFCURVE",
"381 578 OFFCURVE",
"325 590 CURVE SMOOTH",
"281 600 OFFCURVE",
"199 604 OFFCURVE",
"146 600 CURVE"
);
},
{
closed = 1;
nodes = (
"260 403 OFFCURVE",
"197 360 OFFCURVE",
"213 313 CURVE",
"235 257 OFFCURVE",
"289 244 OFFCURVE",
"248 161 CURVE SMOOTH",
"227 120 OFFCURVE",
"188 81 OFFCURVE",
"142 57 CURVE SMOOTH",
"101 36 OFFCURVE",
"59 28 OFFCURVE",
"24 33 CURVE",
"89 192 OFFCURVE",
"160 385 OFFCURVE",
"187 570 CURVE",
"284 570 OFFCURVE",
"376 550 OFFCURVE",
"393 524 CURVE",
"411 506 OFFCURVE",
"356 472 OFFCURVE",
"321 446 CURVE SMOOTH"
);
}
);
width = 371;
}
);
unicode = 0042;
},
{
glyphname = C;
layers = (
{
layerId = "B2224B7D-3358-49DE-B033-78E3556D2134";
name = Regular;
paths = (
{
closed = 1;
nodes = (
"222 21 OFFCURVE",
"120 -37 OFFCURVE",
"55 10 CURVE SMOOTH",
"23 36 OFFCURVE",
"8 85 OFFCURVE",
"15 153 CURVE SMOOTH",
"20 215 OFFCURVE",
"40 285 OFFCURVE",
"72 353 CURVE SMOOTH",
"111 431 OFFCURVE",
"161 499 OFFCURVE",
"216 543 CURVE SMOOTH",
"277 590 OFFCURVE",
"343 618 OFFCURVE",
"422 600 CURVE",
"414 568 LINE",
"355 582 OFFCURVE",
"294 564 OFFCURVE",
"236 517 CURVE SMOOTH",
"185 476 OFFCURVE",
"137 412 OFFCURVE",
"102 339 CURVE SMOOTH",
"71 275 OFFCURVE",
"51 208 OFFCURVE",
"47 151 CURVE SMOOTH",
"42 96 OFFCURVE",
"53 55 OFFCURVE",
"75 37 CURVE SMOOTH",
"122 3 OFFCURVE",
"209 52 OFFCURVE",
"287 117 CURVE",
"308 91 LINE"
);
}
);
width = 387;
}
);
unicode = 0043;
},
{
glyphname = D;
layers = (
{
layerId = "B2224B7D-3358-49DE-B033-78E3556D2134";
name = Regular;
paths = (
{
closed = 1;
nodes = (
"153 613 LINE",
"146 586 OFFCURVE",
"33 178 OFFCURVE",
"-24 32 CURVE",
"-29 32 OFFCURVE",
"-34 32 OFFCURVE",
"-39 32 CURVE",
"-39 0 LINE",
"-38 0 OFFCURVE",
"-37 0 OFFCURVE",
"-35 0 CURVE SMOOTH",
"101 0 OFFCURVE",
"245 74 OFFCURVE",
"335 234 CURVE SMOOTH",
"387 328 OFFCURVE",
"413 447 OFFCURVE",
"361 529 CURVE SMOOTH",
"339 566 OFFCURVE",
"282 608 OFFCURVE",
"183 605 CURVE"
);
},
{
closed = 1;
nodes = (
"254 156 OFFCURVE",
"153 56 OFFCURVE",
"17 36 CURVE",
"85 210 OFFCURVE",
"173 557 OFFCURVE",
"177 573 CURVE",
"246 576 OFFCURVE",
"308 555 OFFCURVE",
"334 512 CURVE SMOOTH",
"373 451 OFFCURVE",
"362 348 OFFCURVE",
"307 250 CURVE SMOOTH"
);
}
);
width = 377;
}
);
unicode = 0044;
},
{
glyphname = E;
layers = (
{
layerId = "B2224B7D-3358-49DE-B033-78E3556D2134";
name = Regular;
paths = (
{
closed = 1;
nodes = (
"430 605 LINE",
"371 605 OFFCURVE",
"245 586 OFFCURVE",
"161 612 CURVE",
"159 604 LINE",
"142 547 OFFCURVE",
"122 491 OFFCURVE",
"104 436 CURVE",
"98 421 OFFCURVE",
"-16 99 OFFCURVE",
"-19 91 CURVE",
"-27 66 OFFCURVE",
"-39 25 OFFCURVE",
"-33 16 CURVE",
"-9 -42 OFFCURVE",
"231 12 OFFCURVE",
"255 15 CURVE",
"251 48 LINE",
"205 43 OFFCURVE",
"26 6 OFFCURVE",
"2 30 CURVE",
"-2 35 OFFCURVE",
"12 77 OFFCURVE",
"15 85 CURVE",
"15 85 OFFCURVE",
"52 196 OFFCURVE",
"86 291 CURVE",
"134 298 OFFCURVE",
"207 286 OFFCURVE",
"264 307 CURVE",
"253 339 LINE",
"205 323 OFFCURVE",
"143 330 OFFCURVE",
"99 327 CURVE",
"119 382 OFFCURVE",
"135 425 OFFCURVE",
"135 425 CURVE",
"151 473 OFFCURVE",
"169 523 OFFCURVE",
"183 572 CURVE",
"262 556 OFFCURVE",
"370 572 OFFCURVE",
"432 572 CURVE"
);
}
);
width = 359;
}
);
unicode = 0045;
},
{
glyphname = F;
layers = (
{
layerId = "B2224B7D-3358-49DE-B033-78E3556D2134";
name = Regular;
paths = (
{
closed = 1;
nodes = (
"441 606 LINE",
"342 586 OFFCURVE",
"209 599 OFFCURVE",
"172 603 CURVE",
"168 604 LINE",
"148 543 OFFCURVE",
"130 483 OFFCURVE",
"114 424 CURVE SMOOTH",
"70 277 OFFCURVE",
"29 137 OFFCURVE",
"-49 0 CURVE",
"-18 -17 LINE",
"41 87 OFFCURVE",
"79 192 OFFCURVE",
"113 300 CURVE",
"113 300 OFFCURVE",
"210 306 OFFCURVE",
"229 307 CURVE",
"229 342 LINE",
"207 341 OFFCURVE",
"158 337 OFFCURVE",
"125 336 CURVE",
"133 362 OFFCURVE",
"139 388 OFFCURVE",
"147 415 CURVE SMOOTH",
"161 464 OFFCURVE",
"176 514 OFFCURVE",
"192 566 CURVE",
"276 560 OFFCURVE",
"365 555 OFFCURVE",
"448 571 CURVE"
);
}
);
width = 349;
}
);
unicode = 0046;
},
{
glyphname = G;
layers = (
{
layerId = "B2224B7D-3358-49DE-B033-78E3556D2134";
name = Regular;
paths = (
{
closed = 1;
nodes = (
"156 -14 OFFCURVE",
"70 -47 OFFCURVE",
"35 43 CURVE SMOOTH",
"17 93 OFFCURVE",
"18 175 OFFCURVE",
"39 264 CURVE SMOOTH",
"61 358 OFFCURVE",
"102 445 OFFCURVE",
"154 508 CURVE SMOOTH",
"223 593 OFFCURVE",
"308 629 OFFCURVE",
"400 613 CURVE",
"393 581 LINE",
"294 598 OFFCURVE",
"222 540 OFFCURVE",
"179 487 CURVE SMOOTH",
"131 429 OFFCURVE",
"92 345 OFFCURVE",
"70 256 CURVE SMOOTH",
"51 174 OFFCURVE",
"50 99 OFFCURVE",
"66 54 CURVE SMOOTH",
"86 2 OFFCURVE",
"135 13 OFFCURVE",
"202 57 CURVE SMOOTH",
"243 84 OFFCURVE",
"280 120 OFFCURVE",
"302 152 CURVE SMOOTH",
"319 176 OFFCURVE",
"325 198 OFFCURVE",
"319 208 CURVE SMOOTH",
"315 214 OFFCURVE",
"300 229 OFFCURVE",
"241 224 CURVE",
"239 256 LINE",
"277 260 OFFCURVE",
"328 256 OFFCURVE",
"347 225 CURVE SMOOTH",
"357 209 OFFCURVE",
"361 180 OFFCURVE",
"329 133 CURVE SMOOTH",
"305 97 OFFCURVE",
"264 59 OFFCURVE",
"220 30 CURVE SMOOTH"
);
}
);
width = 403;
}
);
unicode = 0047;
},
{
glyphname = H;
layers = (
{
layerId = "B2224B7D-3358-49DE-B033-78E3556D2134";
name = Regular;
paths = (
{
closed = 1;
nodes = (
"348 316 LINE",
"378 421 OFFCURVE",
"415 521 OFFCURVE",
"470 600 CURVE",
"443 619 LINE",
"405 563 OFFCURVE",
"370 492 OFFCURVE",
"342 402 CURVE SMOOTH",
"333 377 OFFCURVE",
"325 351 OFFCURVE",
"318 325 CURVE",
"291 324 OFFCURVE",
"261 326 OFFCURVE",
"231 328 CURVE SMOOTH",
"191 331 OFFCURVE",
"150 333 OFFCURVE",
"114 328 CURVE",
"122 356 OFFCURVE",
"164 500 OFFCURVE",
"205 599 CURVE",
"176 613 LINE",
"139 529 OFFCURVE",
"112 439 OFFCURVE",
"87 353 CURVE SMOOTH",
"51 232 OFFCURVE",
"13 108 OFFCURVE",
"-49 0 CURVE",
"-22 -17 LINE",
"34 79 OFFCURVE",
"71 187 OFFCURVE",
"103 294 CURVE",
"138 301 OFFCURVE",
"187 298 OFFCURVE",
"231 296 CURVE",
"258 294 OFFCURVE",
"300 293 OFFCURVE",
"309 293 CURVE",
"296 248 OFFCURVE",
"285 203 OFFCURVE",
"273 158 CURVE SMOOTH",
"259 101 OFFCURVE",
"246 46 OFFCURVE",
"230 -6 CURVE",
"261 -16 LINE",
"276 36 OFFCURVE",
"290 91 OFFCURVE",
"304 150 CURVE SMOOTH",
"316 198 OFFCURVE",
"328 247 OFFCURVE",
"342 295 CURVE",
"345 295 OFFCURVE",
"349 296 OFFCURVE",
"352 296 CURVE"
);
}
);
width = 384;
}
);
unicode = 0048;
},
{
glyphname = I;
layers = (
{
layerId = "B2224B7D-3358-49DE-B033-78E3556D2134";
name = Regular;
paths = (
{
closed = 1;
nodes = (
"461 600 LINE",
"355 575 OFFCURVE",
"238 576 OFFCURVE",
"153 601 CURVE",
"144 569 LINE",
"184 557 OFFCURVE",
"233 550 OFFCURVE",
"283 548 CURVE",
"195 353 OFFCURVE",
"134 182 OFFCURVE",
"104 42 CURVE",
"51 34 OFFCURVE",
"3 24 OFFCURVE",
"-42 20 CURVE",
"-39 -14 LINE",
"52 -4 OFFCURVE",
"146 23 OFFCURVE",
"259 15 CURVE",
"261 49 LINE",
"217 52 OFFCURVE",
"176 50 OFFCURVE",
"139 46 CURVE",
"170 186 OFFCURVE",
"231 354 OFFCURVE",
"319 548 CURVE",
"371 549 OFFCURVE",
"422 555 OFFCURVE",
"468 566 CURVE"
);
}
);
width = 382;
}
);
unicode = 0049;
},
{
glyphname = J;
layers = (
{
layerId = "B2224B7D-3358-49DE-B033-78E3556D2134";
name = Regular;
paths = (
{
closed = 1;
nodes = (
"510 601 LINE",
"459 601 OFFCURVE",
"407 601 OFFCURVE",
"356 600 CURVE SMOOTH",
"307 600 OFFCURVE",
"254 599 OFFCURVE",
"203 599 CURVE",
"203 564 LINE",
"247 564 OFFCURVE",
"293 565 OFFCURVE",
"338 565 CURVE",
"321 489 OFFCURVE",
"292 380 OFFCURVE",
"252 276 CURVE SMOOTH",
"202 151 OFFCURVE",
"149 69 OFFCURVE",
"90 34 CURVE SMOOTH",
"75 25 OFFCURVE",
"55 16 OFFCURVE",
"44 26 CURVE",
"16 49 OFFCURVE",
"33 152 OFFCURVE",
"46 178 CURVE",
"16 194 LINE",
"-5 154 OFFCURVE",
"-20 39 OFFCURVE",
"21 1 CURVE",
"42 -20 OFFCURVE",
"75 -16 OFFCURVE",
"108 5 CURVE SMOOTH",
"186 54 OFFCURVE",
"247 169 OFFCURVE",
"283 265 CURVE SMOOTH",
"327 373 OFFCURVE",
"355 488 OFFCURVE",
"374 565 CURVE",
"371 566 LINE",
"417 567 OFFCURVE",
"464 567 OFFCURVE",
"510 567 CURVE"
);
}
);
width = 413;
}
);
unicode = 004A;
},
{
glyphname = K;
layers = (
{
layerId = "B2224B7D-3358-49DE-B033-78E3556D2134";
name = Regular;
paths = (
{
closed = 1;
nodes = (
"419 599 LINE",
"351 510 OFFCURVE",
"216 401 OFFCURVE",
"142 347 CURVE",
"175 434 OFFCURVE",
"199 520 OFFCURVE",
"201 600 CURVE",
"169 603 LINE",
"165 466 OFFCURVE",
"87 298 OFFCURVE",
"20 152 CURVE SMOOTH",
"-10 89 OFFCURVE",
"-37 30 OFFCURVE",
"-57 -24 CURVE",
"-27 -39 LINE",
"-8 14 OFFCURVE",
"20 74 OFFCURVE",
"50 135 CURVE SMOOTH",
"66 170 OFFCURVE",
"82 205 OFFCURVE",
"98 241 CURVE",
"110 212 OFFCURVE",
"136 182 OFFCURVE",
"161 151 CURVE",
"194 106 OFFCURVE",
"236 54 OFFCURVE",
"243 -2 CURVE",
"277 0 LINE",
"269 66 OFFCURVE",
"223 121 OFFCURVE",
"184 170 CURVE",
"135 238 OFFCURVE",
"102 274 OFFCURVE",
"157 314 CURVE SMOOTH",
"231 366 OFFCURVE",
"376 484 OFFCURVE",
"445 576 CURVE"
);
}
);
width = 375;
}
);
unicode = 004B;
},
{
glyphname = L;
layers = (
{
layerId = "B2224B7D-3358-49DE-B033-78E3556D2134";
name = Regular;
paths = (
{
closed = 1;
nodes = (
"188 -6 OFFCURVE",
"132 19 OFFCURVE",
"-50 -35 CURVE SMOOTH",
"-67 -40 OFFCURVE",
"-44 19 OFFCURVE",
"-23 65 CURVE SMOOTH",
"46 218 OFFCURVE",
"146 476 OFFCURVE",
"150 604 CURVE",
"185 600 LINE",
"182 542 OFFCURVE",
"161 449 OFFCURVE",
"117 325 CURVE SMOOTH",
"59 160 OFFCURVE",
"-21 2 OFFCURVE",
"-11 7 CURVE",
"147 55 OFFCURVE",
"183 26 OFFCURVE",
"252 34 CURVE",
"256 0 LINE"
);
}
);
width = 343;
}
);
unicode = 004C;
},
{
glyphname = M;
layers = (
{
layerId = "B2224B7D-3358-49DE-B033-78E3556D2134";
name = Regular;
paths = (
{
closed = 1;
nodes = (
"-46 -16 LINE",
"-22 68 OFFCURVE",
"39 222 OFFCURVE",
"65 324 CURVE SMOOTH",
"86 408 OFFCURVE",
"108 477 OFFCURVE",
"121 522 CURVE SMOOTH",
"128 547 OFFCURVE",
"146 611 OFFCURVE",
"164 611 CURVE SMOOTH",
"187 611 OFFCURVE",
"192 583 OFFCURVE",
"210 515 CURVE SMOOTH",
"218 480 OFFCURVE",
"242 387 OFFCURVE",
"258 371 CURVE SMOOTH",
"268 361 OFFCURVE",
"375 520 OFFCURVE",
"399 546 CURVE SMOOTH",
"433 585 OFFCURVE",
"464 608 OFFCURVE",
"487 588 CURVE SMOOTH",
"501 570 OFFCURVE",
"481 515 OFFCURVE",
"468 470 CURVE SMOOTH",
"451 413 OFFCURVE",
"426 339 OFFCURVE",
"401 268 CURVE SMOOTH",
"362 152 OFFCURVE",
"320 33 OFFCURVE",
"315 -5 CURVE",
"283 0 LINE",
"288 41 OFFCURVE",
"329 157 OFFCURVE",
"370 279 CURVE SMOOTH",
"394 345 OFFCURVE",
"415 414 OFFCURVE",
"433 469 CURVE SMOOTH",
"449 519 OFFCURVE",
"462 556 OFFCURVE",
"459 558 CURVE",
"454 563 OFFCURVE",
"390 484 OFFCURVE",
"355 437 CURVE SMOOTH",
"328 402 OFFCURVE",
"279 332 OFFCURVE",
"253 336 CURVE SMOOTH",
"218 342 OFFCURVE",
"190 453 OFFCURVE",
"178 507 CURVE SMOOTH",
"175 521 OFFCURVE",
"170 548 OFFCURVE",
"167 548 CURVE",
"163 548 OFFCURVE",
"122 416 OFFCURVE",
"97 315 CURVE SMOOTH",
"72 218 OFFCURVE",
"9 54 OFFCURVE",
"-15 -26 CURVE"
);
}
);
width = 426;
}
);
unicode = 004D;
},
{
glyphname = N;
layers = (
{
layerId = "B2224B7D-3358-49DE-B033-78E3556D2134";
name = Regular;
paths = (
{
closed = 1;
nodes = (
"303 -43 OFFCURVE",
"283 -50 OFFCURVE",
"258 -32 CURVE SMOOTH",
"214 7 OFFCURVE",
"198 162 OFFCURVE",
"188 266 CURVE SMOOTH",
"177 393 OFFCURVE",
"175 527 OFFCURVE",
"175 545 CURVE",
"175 545 OFFCURVE",
"136 424 OFFCURVE",
"132 412 CURVE SMOOTH",
"94 289 OFFCURVE",
"42 121 OFFCURVE",
"-17 -14 CURVE",
"-49 0 LINE",
"36 195 OFFCURVE",
"99 436 OFFCURVE",
"143 560 CURVE SMOOTH",
"150 579 OFFCURVE",
"167 629 OFFCURVE",
"189 623 CURVE SMOOTH",
"216 619 OFFCURVE",
"211 570 OFFCURVE",
"210 539 CURVE SMOOTH",
"210 519 OFFCURVE",
"212 395 OFFCURVE",
"223 270 CURVE SMOOTH",
"241 58 OFFCURVE",
"268 8 OFFCURVE",
"280 -3 CURVE",
"300 41 OFFCURVE",
"355 232 OFFCURVE",
"381 330 CURVE SMOOTH",
"417 457 OFFCURVE",
"451 578 OFFCURVE",
"468 615 CURVE",
"499 600 LINE",
"484 566 OFFCURVE",
"449 441 OFFCURVE",
"415 320 CURVE SMOOTH",
"387 221 OFFCURVE",
"338 47 OFFCURVE",
"319 2 CURVE SMOOTH"
);
}
);
width = 429;
}
);
unicode = 004E;
},
{
glyphname = O;
layers = (
{
layerId = "B2224B7D-3358-49DE-B033-78E3556D2134";
name = Regular;
paths = (
{
closed = 1;
nodes = (
"140 3 OFFCURVE",
"34 -63 OFFCURVE",
"6 49 CURVE SMOOTH",
"-10 111 OFFCURVE",
"29 251 OFFCURVE",
"60 330 CURVE SMOOTH",
"87 403 OFFCURVE",
"144 524 OFFCURVE",
"194 568 CURVE",
"216 541 LINE",
"279 598 OFFCURVE",
"329 622 OFFCURVE",
"365 611 CURVE SMOOTH",
"420 594 OFFCURVE",
"422 515 OFFCURVE",
"411 443 CURVE SMOOTH",
"405 400 OFFCURVE",
"393 353 OFFCURVE",
"373 308 CURVE SMOOTH",
"333 203 OFFCURVE",
"276 115 OFFCURVE",
"215 64 CURVE SMOOTH"
);
},
{
closed = 1;
nodes = (
"148 447 OFFCURVE",
"117 384 OFFCURVE",
"90 316 CURVE SMOOTH",
"48 205 OFFCURVE",
"29 105 OFFCURVE",
"39 54 CURVE SMOOTH",
"51 2 OFFCURVE",
"84 3 OFFCURVE",
"191 90 CURVE SMOOTH",
"247 138 OFFCURVE",
"304 222 OFFCURVE",
"341 322 CURVE SMOOTH",
"383 424 OFFCURVE",
"400 566 OFFCURVE",
"357 578 CURVE SMOOTH",
"344 582 OFFCURVE",
"300 580 OFFCURVE",
"198 471 CURVE",
"175 490 LINE"
);
}
);
width = 385;
}
);
unicode = 004F;
},
{
glyphname = P;
layers = (
{
layerId = "B2224B7D-3358-49DE-B033-78E3556D2134";
name = Regular;
paths = (
{
closed = 1;
nodes = (
"185 614 LINE",
"141 511 OFFCURVE",
"109 406 OFFCURVE",
"79 305 CURVE SMOOTH",
"79 304 OFFCURVE",
"79 304 OFFCURVE",
"78 303 CURVE",
"68 298 OFFCURVE",
"56 294 OFFCURVE",
"45 289 CURVE",
"59 258 LINE",
"61 259 OFFCURVE",
"63 260 OFFCURVE",
"66 261 CURVE",
"40 174 OFFCURVE",
"12 86 OFFCURVE",
"-25 0 CURVE",
"6 -14 LINE",
"48 83 OFFCURVE",
"77 182 OFFCURVE",
"108 278 CURVE",
"198 320 OFFCURVE",
"277 379 OFFCURVE",
"332 433 CURVE SMOOTH",
"391 490 OFFCURVE",
"426 543 OFFCURVE",
"429 583 CURVE SMOOTH",
"432 661 OFFCURVE",
"337 662 OFFCURVE",
"217 600 CURVE"
);
},
{
closed = 1;
nodes = (
"392 554 OFFCURVE",
"359 509 OFFCURVE",
"308 458 CURVE SMOOTH",
"274 425 OFFCURVE",
"213 371 OFFCURVE",
"122 324 CURVE",
"144 398 OFFCURVE",
"167 475 OFFCURVE",
"196 550 CURVE",
"316 618 OFFCURVE",
"397 629 OFFCURVE",
"394 586 CURVE SMOOTH"
);
}
);
width = 351;
}
);
unicode = 0050;
},
{
glyphname = Q;
layers = (
{
layerId = "B2224B7D-3358-49DE-B033-78E3556D2134";
name = Regular;
paths = (
{
closed = 1;
nodes = (
"222 608 LINE",
"175 562 OFFCURVE",
"106 434 OFFCURVE",
"51 298 CURVE SMOOTH",
"24 229 OFFCURVE",
"5 167 OFFCURVE",
"-4 118 CURVE SMOOTH",
"-24 22 OFFCURVE",
"-6 -39 OFFCURVE",
"74 -11 CURVE",
"112 7 OFFCURVE",
"166 55 OFFCURVE",
"188 76 CURVE",
"190 67 OFFCURVE",
"199 19 OFFCURVE",
"202 -5 CURVE",
"235 0 LINE",
"232 21 OFFCURVE",
"220 92 OFFCURVE",
"218 106 CURVE",
"329 226 OFFCURVE",
"408 405 OFFCURVE",
"358 546 CURVE SMOOTH",
"333 618 OFFCURVE",
"285 633 OFFCURVE",
"234 597 CURVE"
);
},
{
closed = 1;
nodes = (
"168 223 LINE",
"171 188 OFFCURVE",
"176 153 OFFCURVE",
"181 118 CURVE",
"153 89 OFFCURVE",
"102 40 OFFCURVE",
"60 21 CURVE",
"25 7 OFFCURVE",
"11 23 OFFCURVE",
"29 111 CURVE SMOOTH",
"38 158 OFFCURVE",
"58 218 OFFCURVE",
"83 285 CURVE SMOOTH",
"119 373 OFFCURVE",
"161 460 OFFCURVE",
"198 520 CURVE",
"216 511 LINE",
"254 592 OFFCURVE",
"297 608 OFFCURVE",
"326 535 CURVE SMOOTH",
"353 459 OFFCURVE",
"340 303 OFFCURVE",
"211 151 CURVE",
"207 176 OFFCURVE",
"203 201 OFFCURVE",
"201 227 CURVE"
);
}
);
width = 354;
}
);
unicode = 0051;
},
{
glyphname = R;
layers = (
{
layerId = "B2224B7D-3358-49DE-B033-78E3556D2134";
name = Regular;
paths = (
{
closed = 1;
nodes = (
"165 607 LINE",
"164 604 OFFCURVE",
"164 601 OFFCURVE",
"163 598 CURVE",
"157 597 OFFCURVE",
"152 596 OFFCURVE",
"148 595 CURVE",
"154 559 LINE",
"155 559 OFFCURVE",
"155 559 OFFCURVE",
"156 559 CURVE",
"129 434 OFFCURVE",
"87 337 OFFCURVE",
"44 235 CURVE SMOOTH",
"13 164 OFFCURVE",
"-20 90 OFFCURVE",
"-49 0 CURVE",
"-15 -12 LINE",
"14 77 OFFCURVE",
"46 150 OFFCURVE",
"76 220 CURVE SMOOTH",
"122 328 OFFCURVE",
"167 430 OFFCURVE",
"194 566 CURVE",
"219 569 OFFCURVE",
"250 572 OFFCURVE",
"281 573 CURVE SMOOTH",
"389 575 OFFCURVE",
"421 556 OFFCURVE",
"399 511 CURVE SMOOTH",
"367 445 OFFCURVE",
"295 401 OFFCURVE",
"231 363 CURVE SMOOTH",
"189 339 OFFCURVE",
"112 298 OFFCURVE",
"121 245 CURVE SMOOTH",
"136 156 OFFCURVE",
"237 17 OFFCURVE",
"261 -16 CURVE",
"291 4 LINE",
"267 45 OFFCURVE",
"173 160 OFFCURVE",
"157 251 CURVE",
"152 274 OFFCURVE",
"200 303 OFFCURVE",
"249 332 CURVE SMOOTH",
"314 370 OFFCURVE",
"395 419 OFFCURVE",
"431 495 CURVE SMOOTH",
"470 576 OFFCURVE",
"400 612 OFFCURVE",
"280 609 CURVE SMOOTH",
"250 608 OFFCURVE",
"219 605 OFFCURVE",
"194 602 CURVE"
);
}
);
width = 388;
}
);
unicode = 0052;
},
{
glyphname = S;
layers = (
{
layerId = "B2224B7D-3358-49DE-B033-78E3556D2134";
name = Regular;
paths = (
{
closed = 1;
nodes = (
"21 -8 OFFCURVE",
"4 -13 OFFCURVE",
"-11 -13 CURVE SMOOTH",
"-15 20 LINE SMOOTH",
"-7 20 OFFCURVE",
"6 23 OFFCURVE",
"23 30 CURVE SMOOTH",
"113 62 OFFCURVE",
"203 109 OFFCURVE",
"219 166 CURVE SMOOTH",
"231 212 OFFCURVE",
"196 257 OFFCURVE",
"159 305 CURVE SMOOTH",
"123 356 OFFCURVE",
"83 408 OFFCURVE",
"99 466 CURVE SMOOTH",
"115 521 OFFCURVE",
"183 568 OFFCURVE",
"313 611 CURVE",
"326 579 LINE",
"239 551 OFFCURVE",
"142 506 OFFCURVE",
"132 455 CURVE SMOOTH",
"120 415 OFFCURVE",
"152 371 OFFCURVE",
"187 326 CURVE SMOOTH",
"222 281 OFFCURVE",
"269 214 OFFCURVE",
"252 157 CURVE SMOOTH",
"236 97 OFFCURVE",
"168 47 OFFCURVE",
"37 -2 CURVE SMOOTH"
);
}
);
width = 299;
}
);
unicode = 0053;
},
{
glyphname = T;
layers = (
{
anchors = (
{
name = top;
position = "{212, 600}";
},
{
name = bottom;
position = "{212, 0}";
},
{
name = center;
position = "{212, 300}";
}
);
layerId = "B2224B7D-3358-49DE-B033-78E3556D2134";
name = Regular;
paths = (
{
closed = 1;
nodes = (
"519 608 LINE",
"484 608 OFFCURVE",
"446 606 OFFCURVE",
"407 604 CURVE SMOOTH",
"382 602 OFFCURVE",
"355 600 OFFCURVE",
"329 599 CURVE",
"298 609 LINE",
"298 605 OFFCURVE",
"297 602 OFFCURVE",
"296 598 CURVE",
"241 597 OFFCURVE",
"189 602 OFFCURVE",
"141 617 CURVE",
"134 584 LINE",
"182 567 OFFCURVE",
"234 563 OFFCURVE",
"287 563 CURVE",
"243 391 OFFCURVE",
"198 226 OFFCURVE",
"135 65 CURVE",
"125 43 OFFCURVE",
"115 22 OFFCURVE",
"109 0 CURVE",
"142 -16 LINE",
"152 6 OFFCURVE",
"157 29 OFFCURVE",
"167 50 CURVE",
"233 215 OFFCURVE",
"281 387 OFFCURVE",
"324 563 CURVE",
"354 564 OFFCURVE",
"384 566 OFFCURVE",
"413 568 CURVE SMOOTH",
"452 570 OFFCURVE",
"489 573 OFFCURVE",
"523 573 CURVE"
);
}
);
width = 424;
}
);
unicode = 0054;
},
{
glyphname = U;
layers = (
{
layerId = "B2224B7D-3358-49DE-B033-78E3556D2134";
name = Regular;
paths = (
{
closed = 1;
nodes = (
"163 -18 OFFCURVE",
"108 -18 OFFCURVE",
"68 19 CURVE SMOOTH",
"20 72 OFFCURVE",
"29 185 OFFCURVE",
"46 271 CURVE SMOOTH",
"68 380 OFFCURVE",
"115 507 OFFCURVE",
"175 618 CURVE",
"205 600 LINE",
"147 491 OFFCURVE",
"101 368 OFFCURVE",
"80 262 CURVE SMOOTH",
"58 154 OFFCURVE",
"66 74 OFFCURVE",
"94 42 CURVE SMOOTH",
"116 20 OFFCURVE",
"152 20 OFFCURVE",
"205 43 CURVE SMOOTH",
"284 80 OFFCURVE",
"368 205 OFFCURVE",
"416 302 CURVE SMOOTH",
"459 393 OFFCURVE",
"504 511 OFFCURVE",
"498 590 CURVE",
"530 594 LINE",
"543 532 OFFCURVE",
"508 409 OFFCURVE",
"447 286 CURVE SMOOTH",
"397 180 OFFCURVE",
"317 59 OFFCURVE",
"222 11 CURVE SMOOTH"
);
}
);
width = 476;
}
);
unicode = 0055;
},
{
glyphname = V;
layers = (
{
layerId = "B2224B7D-3358-49DE-B033-78E3556D2134";
name = Regular;
paths = (
{
closed = 1;
nodes = (
"155 -36 OFFCURVE",
"134 -29 OFFCURVE",
"120 42 CURVE SMOOTH",
"115 65 OFFCURVE",
"111 102 OFFCURVE",
"107 154 CURVE SMOOTH",
"102 244 OFFCURVE",
"101 393 OFFCURVE",
"135 597 CURVE",
"168 590 LINE",
"134 394 OFFCURVE",
"132 251 OFFCURVE",
"139 165 CURVE SMOOTH",
"143 99 OFFCURVE",
"149 33 OFFCURVE",
"156 33 CURVE SMOOTH",
"162 33 OFFCURVE",
"179 61 OFFCURVE",
"199 96 CURVE SMOOTH",
"226 140 OFFCURVE",
"260 199 OFFCURVE",
"295 262 CURVE SMOOTH",
"367 389 OFFCURVE",
"448 532 OFFCURVE",
"516 621 CURVE",
"541 600 LINE",
"474 514 OFFCURVE",
"393 371 OFFCURVE",
"325 246 CURVE SMOOTH",
"287 179 OFFCURVE",
"252 117 OFFCURVE",
"224 71 CURVE SMOOTH"
);
}
);
width = 444;
}
);
unicode = 0056;
},
{
glyphname = W;
layers = (
{
layerId = "B2224B7D-3358-49DE-B033-78E3556D2134";
name = Regular;
paths = (
{
closed = 1;
nodes = (
"75 -26 OFFCURVE",
"48 -29 OFFCURVE",
"44 3 CURVE SMOOTH",
"44 8 OFFCURVE",
"49 113 OFFCURVE",
"65 235 CURVE SMOOTH",
"86 404 OFFCURVE",
"116 532 OFFCURVE",
"156 618 CURVE",
"186 604 LINE",
"150 523 OFFCURVE",
"120 395 OFFCURVE",
"99 234 CURVE SMOOTH",
"88 155 OFFCURVE",
"83 87 OFFCURVE",
"79 46 CURVE",
"90 62 OFFCURVE",
"101 83 OFFCURVE",
"112 100 CURVE SMOOTH",
"185 230 OFFCURVE",
"242 324 OFFCURVE",
"288 290 CURVE SMOOTH",
"304 279 OFFCURVE",
"311 247 OFFCURVE",
"324 180 CURVE SMOOTH",
"328 148 OFFCURVE",
"333 115 OFFCURVE",
"341 88 CURVE SMOOTH",
"352 51 OFFCURVE",
"364 27 OFFCURVE",
"367 34 CURVE SMOOTH",
"376 57 OFFCURVE",
"397 114 OFFCURVE",
"418 174 CURVE SMOOTH",
"480 341 OFFCURVE",
"563 571 OFFCURVE",
"597 619 CURVE",
"625 600 LINE",
"593 555 OFFCURVE",
"508 319 OFFCURVE",
"450 162 CURVE SMOOTH",
"430 104 OFFCURVE",
"413 58 OFFCURVE",
"398 22 CURVE SMOOTH",
"387 -4 OFFCURVE",
"370 -8 OFFCURVE",
"348 7 CURVE SMOOTH",
"314 31 OFFCURVE",
"301 105 OFFCURVE",
"290 175 CURVE SMOOTH",
"285 201 OFFCURVE",
"276 256 OFFCURVE",
"269 262 CURVE SMOOTH",
"267 263 OFFCURVE",
"253 261 OFFCURVE",
"218 210 CURVE SMOOTH",
"192 175 OFFCURVE",
"165 126 OFFCURVE",
"141 84 CURVE SMOOTH",
"126 58 OFFCURVE",
"113 32 OFFCURVE",
"101 16 CURVE SMOOTH"
);
}
);
width = 539;
}
);
unicode = 0057;
},
{
glyphname = X;
layers = (
{
layerId = "B2224B7D-3358-49DE-B033-78E3556D2134";
name = Regular;
paths = (
{
closed = 1;
nodes = (
"429 616 LINE",
"373 512 OFFCURVE",
"297 413 OFFCURVE",
"217 317 CURVE",
"201 409 OFFCURVE",
"185 502 OFFCURVE",
"172 596 CURVE",
"138 590 LINE",
"153 488 OFFCURVE",
"171 386 OFFCURVE",
"189 285 CURVE",
"173 266 OFFCURVE",
"157 247 OFFCURVE",
"141 229 CURVE SMOOTH",
"74 150 OFFCURVE",
"4 67 OFFCURVE",
"-55 -15 CURVE",
"-28 -35 LINE",
"31 47 OFFCURVE",
"101 128 OFFCURVE",
"167 206 CURVE SMOOTH",
"177 218 OFFCURVE",
"186 229 OFFCURVE",
"196 241 CURVE",
"210 160 OFFCURVE",
"224 77 OFFCURVE",
"236 -5 CURVE",
"270 0 LINE",
"257 92 OFFCURVE",
"242 184 OFFCURVE",
"224 274 CURVE",
"311 378 OFFCURVE",
"396 485 OFFCURVE",
"459 599 CURVE"
);
}
);
width = 368;
}
);
unicode = 0058;
},
{
glyphname = Y;
layers = (
{
layerId = "B2224B7D-3358-49DE-B033-78E3556D2134";
name = Regular;
paths = (
{
closed = 1;
nodes = (
"413 627 LINE",
"376 575 OFFCURVE",
"255 406 OFFCURVE",
"218 359 CURVE SMOOTH",
"203 340 OFFCURVE",
"164 301 OFFCURVE",
"159 305 CURVE SMOOTH",
"153 310 OFFCURVE",
"149 327 OFFCURVE",
"150 381 CURVE SMOOTH",
"151 430 OFFCURVE",
"160 503 OFFCURVE",
"172 600 CURVE",
"139 610 LINE",
"125 504 OFFCURVE",
"115 427 OFFCURVE",
"115 376 CURVE SMOOTH",
"115 322 OFFCURVE",
"123 293 OFFCURVE",
"139 278 CURVE",
"133 242 OFFCURVE",
"120 206 OFFCURVE",
"111 171 CURVE SMOOTH",
"95 117 OFFCURVE",
"79 60 OFFCURVE",
"71 0 CURVE",
"105 -9 LINE",
"111 49 OFFCURVE",
"128 104 OFFCURVE",
"143 157 CURVE SMOOTH",
"153 195 OFFCURVE",
"168 233 OFFCURVE",
"174 273 CURVE",
"188 278 OFFCURVE",
"215 298 OFFCURVE",
"237 327 CURVE SMOOTH",
"314 424 OFFCURVE",
"368 503 OFFCURVE",
"440 604 CURVE"
);
}
);
width = 342;
}
);
unicode = 0059;
},
{
glyphname = Z;
layers = (
{
layerId = "B2224B7D-3358-49DE-B033-78E3556D2134";
name = Regular;
paths = (
{
closed = 1;
nodes = (
"151 580 LINE",
"159 579 OFFCURVE",
"269 583 OFFCURVE",
"304 583 CURVE SMOOTH",
"333 584 OFFCURVE",
"352 584 OFFCURVE",
"353 578 CURVE SMOOTH",
"355 569 OFFCURVE",
"352 551 OFFCURVE",
"315 498 CURVE SMOOTH",
"283 450 OFFCURVE",
"232 390 OFFCURVE",
"183 333 CURVE SMOOTH",
"181 330 OFFCURVE",
"178 328 OFFCURVE",
"176 325 CURVE",
"165 326 OFFCURVE",
"150 328 OFFCURVE",
"129 330 CURVE",
"134 298 LINE",
"141 297 OFFCURVE",
"147 297 OFFCURVE",
"152 296 CURVE",
"108 246 OFFCURVE",
"68 197 OFFCURVE",
"39 153 CURVE SMOOTH",
"21 125 OFFCURVE",
"7 100 OFFCURVE",
"0 79 CURVE SMOOTH",
"-16 23 OFFCURVE",
"13 -13 OFFCURVE",
"84 -13 CURVE SMOOTH",
"85 -13 OFFCURVE",
"86 -13 OFFCURVE",
"86 -13 CURVE",
"124 -13 OFFCURVE",
"172 -4 OFFCURVE",
"238 13 CURVE",
"222 43 LINE",
"160 28 OFFCURVE",
"112 19 OFFCURVE",
"78 19 CURVE SMOOTH",
"26 19 OFFCURVE",
"12 50 OFFCURVE",
"67 133 CURVE SMOOTH",
"101 185 OFFCURVE",
"148 236 OFFCURVE",
"195 292 CURVE",
"223 290 OFFCURVE",
"261 290 OFFCURVE",
"283 290 CURVE",
"277 322 LINE",
"258 322 OFFCURVE",
"224 322 OFFCURVE",
"219 322 CURVE",
"267 378 OFFCURVE",
"311 432 OFFCURVE",
"343 477 CURVE SMOOTH",
"363 505 OFFCURVE",
"373 527 OFFCURVE",
"379 545 CURVE SMOOTH",
"398 603 OFFCURVE",
"371 616 OFFCURVE",
"303 616 CURVE SMOOTH",
"273 615 OFFCURVE",
"151 611 OFFCURVE",
"145 612 CURVE"
);
}
);
width = 332;
}
);
unicode = 005A;
},
{
glyphname = a;
layers = (
{
anchors = (
{
name = top;
position = "{150, 400}";
},
{
name = ogonek;
position = "{281, 10}";
}
);
layerId = "B2224B7D-3358-49DE-B033-78E3556D2134";
name = Regular;
paths = (
{
closed = 1;
nodes = (
"2 -39 OFFCURVE",
"-20 -9 OFFCURVE",
"-20 30 CURVE SMOOTH",
"-25 87 OFFCURVE",
"-2 167 OFFCURVE",
"41 237 CURVE SMOOTH",
"79 298 OFFCURVE",
"149 383 OFFCURVE",
"270 427 CURVE",
"281 398 LINE",
"169 355 OFFCURVE",
"105 277 OFFCURVE",
"69 220 CURVE SMOOTH",
"21 143 OFFCURVE",
"8 70 OFFCURVE",
"12 32 CURVE SMOOTH",
"14 11 OFFCURVE",
"20 -4 OFFCURVE",
"30 -6 CURVE SMOOTH",
"57 -6 OFFCURVE",
"114 33 OFFCURVE",
"207 206 CURVE",
"218 237 OFFCURVE",
"247 300 OFFCURVE",
"266 341 CURVE SMOOTH",
"297 400 OFFCURVE",
"302 412 OFFCURVE",
"320 399 CURVE SMOOTH",
"336 391 OFFCURVE",
"322 367 OFFCURVE",
"312 344 CURVE SMOOTH",
"308 335 OFFCURVE",
"237 193 OFFCURVE",
"237 192 CURVE",
"221 156 OFFCURVE",
"214 125 OFFCURVE",
"207 100 CURVE SMOOTH",
"195 52 OFFCURVE",
"203 39 OFFCURVE",
"204 38 CURVE SMOOTH",
"207 34 OFFCURVE",
"217 36 OFFCURVE",
"225 39 CURVE",
"238 9 LINE",
"199 -6 OFFCURVE",
"183 11 OFFCURVE",
"176 20 CURVE SMOOTH",
"168 34 OFFCURVE",
"166 52 OFFCURVE",
"169 79 CURVE",
"153 56 OFFCURVE",
"139 36 OFFCURVE",
"124 19 CURVE SMOOTH",
"89 -19 OFFCURVE",
"60 -39 OFFCURVE",
"33 -39 CURVE SMOOTH"
);
}
);
width = 344;
}
);
unicode = 0061;
},
{
glyphname = b;
layers = (
{
layerId = "B2224B7D-3358-49DE-B033-78E3556D2134";
name = Regular;
paths = (
{
closed = 1;
nodes = (
"98 9 OFFCURVE",
"15 -29 OFFCURVE",
"-14 0 CURVE",
"-26 -17 OFFCURVE",
"-50 -4 OFFCURVE",
"-40 27 CURVE SMOOTH",
"-27 61 OFFCURVE",
"-16 99 OFFCURVE",
"8 157 CURVE SMOOTH",
"28 209 OFFCURVE",
"64 298 OFFCURVE",
"84 327 CURVE",
"100 370 OFFCURVE",
"115 413 OFFCURVE",
"130 454 CURVE SMOOTH",
"173 577 OFFCURVE",
"197 653 OFFCURVE",
"209 700 CURVE",
"242 700 LINE",
"223 623 OFFCURVE",
"185 512 OFFCURVE",
"160 443 CURVE SMOOTH",
"153 423 OFFCURVE",
"145 402 OFFCURVE",
"138 381 CURVE",
"151 391 OFFCURVE",
"166 398 OFFCURVE",
"180 404 CURVE SMOOTH",
"216 417 OFFCURVE",
"250 416 OFFCURVE",
"276 402 CURVE SMOOTH",
"329 372 OFFCURVE",
"331 300 OFFCURVE",
"301 225 CURVE SMOOTH",
"277 165 OFFCURVE",
"224 101 OFFCURVE",
"154 51 CURVE SMOOTH"
);
},
{
closed = 1;
nodes = (
"71 202 OFFCURVE",
"-15 32 OFFCURVE",
"8 23 CURVE SMOOTH",
"34 14 OFFCURVE",
"92 46 OFFCURVE",
"136 77 CURVE SMOOTH",
"200 123 OFFCURVE",
"250 182 OFFCURVE",
"271 237 CURVE SMOOTH",
"298 304 OFFCURVE",
"294 355 OFFCURVE",
"260 374 CURVE SMOOTH",
"243 383 OFFCURVE",
"218 383 OFFCURVE",
"192 374 CURVE SMOOTH",
"162 363 OFFCURVE",
"134 341 OFFCURVE",
"112 312 CURVE"
);
}
);
width = 344;
}
);
unicode = 0062;
},
{
glyphname = c;
layers = (
{
anchors = (
{
name = top;
position = "{131, 400}";
},
{
name = bottom;
position = "{131, 0}";
}
);
layerId = "B2224B7D-3358-49DE-B033-78E3556D2134";
name = Regular;
paths = (
{
closed = 1;
nodes = (
"123 0 OFFCURVE",
"69 -26 OFFCURVE",
"24 4 CURVE SMOOTH",
"-19 36 OFFCURVE",
"-14 117 OFFCURVE",
"11 183 CURVE SMOOTH",
"53 297 OFFCURVE",
"151 408 OFFCURVE",
"279 400 CURVE",
"277 365 LINE",
"167 372 OFFCURVE",
"81 273 OFFCURVE",
"44 171 CURVE SMOOTH",
"26 124 OFFCURVE",
"17 53 OFFCURVE",
"45 32 CURVE SMOOTH",
"66 16 OFFCURVE",
"108 32 OFFCURVE",
"162 71 CURVE",
"182 44 LINE"
);
}
);
width = 283;
}
);
unicode = 0063;
},
{
glyphname = d;
layers = (
{
anchors = (
{
name = center;
position = "{158, 200}";
}
);
layerId = "B2224B7D-3358-49DE-B033-78E3556D2134";
name = Regular;
paths = (
{
closed = 1;
nodes = (
"85 -11 OFFCURVE",
"84 -11 OFFCURVE",
"83 -11 CURVE SMOOTH",
"14 -7 OFFCURVE",
"-19 106 OFFCURVE",
"21 223 CURVE SMOOTH",
"43 287 OFFCURVE",
"79 340 OFFCURVE",
"117 369 CURVE SMOOTH",
"168 403 OFFCURVE",
"216 403 OFFCURVE",
"265 376 CURVE",
"260 364 OFFCURVE",
"363 652 OFFCURVE",
"369 666 CURVE SMOOTH",
"379 690 OFFCURVE",
"388 722 OFFCURVE",
"409 714 CURVE SMOOTH",
"425 708 OFFCURVE",
"415 682 OFFCURVE",
"405 651 CURVE SMOOTH",
"403 645 OFFCURVE",
"281 299 OFFCURVE",
"255 219 CURVE SMOOTH",
"202 55 OFFCURVE",
"201 52 OFFCURVE",
"201 0 CURVE",
"165 0 LINE",
"165 39 OFFCURVE",
"168 76 OFFCURVE",
"174 61 CURVE",
"144 15 OFFCURVE",
"113 -11 OFFCURVE",
"85 -11 CURVE SMOOTH"
);
},
{
closed = 1;
nodes = (
"211 369 OFFCURVE",
"184 371 OFFCURVE",
"141 342 CURVE SMOOTH",
"102 316 OFFCURVE",
"70 268 OFFCURVE",
"51 210 CURVE SMOOTH",
"27 139 OFFCURVE",
"39 28 OFFCURVE",
"79 25 CURVE SMOOTH",
"86 24 OFFCURVE",
"114 26 OFFCURVE",
"148 80 CURVE SMOOTH",
"174 116 OFFCURVE",
"191 168 OFFCURVE",
"218 233 CURVE SMOOTH",
"229 267 OFFCURVE",
"241 302 OFFCURVE",
"254 343 CURVE"
);
}
);
width = 318;
}
);
unicode = 0064;
},
{
glyphname = e;
layers = (
{
anchors = (
{
name = top;
position = "{157, 400}";
},
{
name = bottom;
position = "{157, 0}";
},
{
name = ogonek;
position = "{283, 10}";
}
);
layerId = "B2224B7D-3358-49DE-B033-78E3556D2134";
name = Regular;
paths = (
{
closed = 1;
nodes = (
"-34 -15 OFFCURVE",
"-29 137 OFFCURVE",
"49 260 CURVE SMOOTH",
"84 313 OFFCURVE",
"126 356 OFFCURVE",
"178 386 CURVE SMOOTH",
"275 444 OFFCURVE",
"333 392 OFFCURVE",
"288 307 CURVE SMOOTH",
"247 221 OFFCURVE",
"137 160 OFFCURVE",
"30 139 CURVE",
"-10 -10 OFFCURVE",
"97 -8 OFFCURVE",
"219 85 CURVE",
"236 63 LINE",
"159 2 OFFCURVE",
"109 -15 OFFCURVE",
"74 -15 CURVE SMOOTH"
);
},
{
closed = 1;
nodes = (
"288 377 OFFCURVE",
"257 399 OFFCURVE",
"190 358 CURVE SMOOTH",
"114 314 OFFCURVE",
"62 240 OFFCURVE",
"39 172 CURVE",
"163 197 OFFCURVE",
"232 263 OFFCURVE",
"259 315 CURVE SMOOTH"
);
}
);
width = 325;
}
);
unicode = 0065;
},
{
glyphname = f;
layers = (
{
layerId = "B2224B7D-3358-49DE-B033-78E3556D2134";
name = Regular;
paths = (
{
closed = 1;
nodes = (
"70 332 LINE",
"102.317 332 OFFCURVE",
"132.413 332.74 OFFCURVE",
"160.916 334.277 CURVE",
"122 201 OFFCURVE",
"72 22 OFFCURVE",
"18 -35 CURVE SMOOTH",
"-4 -60 OFFCURVE",
"-19 -57 OFFCURVE",
"-24 -55 CURVE",
"-32 -87 LINE",
"-16 -93 OFFCURVE",
"16 -89 OFFCURVE",
"43 -57 CURVE SMOOTH",
"114 22 OFFCURVE",
"186 305 OFFCURVE",
"195.222 336.575 CURVE",
"227.687 339.191 OFFCURVE",
"258.262 342.968 OFFCURVE",
"288 348 CURVE",
"282 380 LINE",
"257.144 376.055 OFFCURVE",
"231.821 372.888 OFFCURVE",
"205.172 370.499 CURVE",
"227.636 446.952 OFFCURVE",
"249.099 518.171 OFFCURVE",
"272 575 CURVE SMOOTH",
"322 701 OFFCURVE",
"351 707 OFFCURVE",
"394 626 CURVE",
"423 641 LINE",
"364 758 OFFCURVE",
"297 729 OFFCURVE",
"241 587 CURVE SMOOTH",
"216.911 526.332 OFFCURVE",
"194.415 449.745 OFFCURVE",
"170.669 367.891 CURVE",
"139.6 365.964 OFFCURVE",
"106.438 365 OFFCURVE",
"70 365 CURVE"
);
}
);
width = 291;
}
);
unicode = 0066;
},
{
glyphname = g;
layers = (
{
anchors = (
{
name = top;
position = "{151, 400}";
}
);
layerId = "B2224B7D-3358-49DE-B033-78E3556D2134";
name = Regular;
paths = (
{
closed = 1;
nodes = (
"-32 -308 OFFCURVE",
"-84 -323 OFFCURVE",
"-110 -292 CURVE SMOOTH",
"-127 -273 OFFCURVE",
"-128 -239 OFFCURVE",
"-113 -198 CURVE",
"-83 -209 LINE",
"-98 -250 OFFCURVE",
"-94 -281 OFFCURVE",
"-65 -275 CURVE SMOOTH",
"-51 -272 OFFCURVE",
"3 -252 OFFCURVE",
"84 -126 CURVE SMOOTH",
"115 -77 OFFCURVE",
"127 -48 OFFCURVE",
"157 20 CURVE",
"120 -20 OFFCURVE",
"67 -26 OFFCURVE",
"38 22 CURVE SMOOTH",
"1 86 OFFCURVE",
"25 223 OFFCURVE",
"89 311 CURVE SMOOTH",
"140 382 OFFCURVE",
"208 411 OFFCURVE",
"281 395 CURVE",
"274 364 LINE",
"150 391 OFFCURVE",
"75 257 OFFCURVE",
"57 152 CURVE SMOOTH",
"47 89 OFFCURVE",
"54 15 OFFCURVE",
"100 21 CURVE SMOOTH",
"115 23 OFFCURVE",
"160 44 OFFCURVE",
"228 203 CURVE SMOOTH",
"234 216 OFFCURVE",
"240 230 OFFCURVE",
"245 244 CURVE",
"255 274 OFFCURVE",
"266 305 OFFCURVE",
"275 336 CURVE SMOOTH",
"285 366 OFFCURVE",
"295 396 OFFCURVE",
"297 401 CURVE SMOOTH",
"303 421 OFFCURVE",
"330 424 OFFCURVE",
"330 398 CURVE SMOOTH",
"330 388 OFFCURVE",
"313 337 OFFCURVE",
"310 327 CURVE SMOOTH",
"302 303 OFFCURVE",
"290 270 OFFCURVE",
"275 233 CURVE",
"250 159 OFFCURVE",
"223 90 OFFCURVE",
"196 28 CURVE SMOOTH",
"162 -50 OFFCURVE",
"146 -87 OFFCURVE",
"111 -143 CURVE SMOOTH",
"79 -192 OFFCURVE",
"48 -232 OFFCURVE",
"18 -260 CURVE SMOOTH"
);
}
);
width = 335;
}
);
unicode = 0067;
},
{
glyphname = h;
layers = (
{
anchors = (
{
name = top;
position = "{182, 400}";
},
{
name = center;
position = "{194, 200}";
}
);
layerId = "B2224B7D-3358-49DE-B033-78E3556D2134";
name = Regular;
paths = (
{
closed = 1;
nodes = (
"195 24 OFFCURVE",
"220 109 OFFCURVE",
"277 234 CURVE SMOOTH",
"305 296 OFFCURVE",
"326 383 OFFCURVE",
"282 387 CURVE SMOOTH",
"263 389 OFFCURVE",
"229 371 OFFCURVE",
"192 340 CURVE SMOOTH",
"140 297 OFFCURVE",
"130 275 OFFCURVE",
"110 229 CURVE SMOOTH",
"88 177 OFFCURVE",
"70 98 OFFCURVE",
"53 50 CURVE SMOOTH",
"39 12 OFFCURVE",
"23 -23 OFFCURVE",
"5 -15 CURVE SMOOTH",
"-13 -7 OFFCURVE",
"-3 50 OFFCURVE",
"36 149 CURVE SMOOTH",
"54 196 OFFCURVE",
"79 243 OFFCURVE",
"88 268 CURVE",
"114 338 OFFCURVE",
"148 439 OFFCURVE",
"181 532 CURVE SMOOTH",
"204 597 OFFCURVE",
"231 681 OFFCURVE",
"221 700 CURVE",
"248 709 LINE",
"257 689 OFFCURVE",
"265 694 OFFCURVE",
"211 520 CURVE SMOOTH",
"193 464 OFFCURVE",
"172 406 OFFCURVE",
"154 352 CURVE",
"174 369 OFFCURVE",
"231 426 OFFCURVE",
"286 419 CURVE SMOOTH",
"362 410 OFFCURVE",
"349 321 OFFCURVE",
"308 224 CURVE SMOOTH",
"269 132 OFFCURVE",
"227 39 OFFCURVE",
"254 12 CURVE",
"231 -10 LINE"
);
}
);
width = 388;
}
);
unicode = 0068;
},
{
glyphname = i;
layers = (
{
guideLines = (
{
angle = 0;
position = "{97, 500}";
},
{
angle = 0;
position = "{93, 484}";
}
);
layerId = "B2224B7D-3358-49DE-B033-78E3556D2134";
name = Regular;
paths = (
{
closed = 1;
nodes = (
"219 534 LINE",
"206 516 OFFCURVE",
"196 486 OFFCURVE",
"177 484 CURVE SMOOTH",
"153 481 OFFCURVE",
"166 510 OFFCURVE",
"174 543 CURVE",
"209 548 LINE",
"210 544 OFFCURVE",
"206 540 OFFCURVE",
"206 536 CURVE"
);
},
{
closed = 1;
nodes = (
"5 -15 OFFCURVE",
"-6 24 OFFCURVE",
"19 104 CURVE SMOOTH",
"32 144 OFFCURVE",
"52 191 OFFCURVE",
"72 236 CURVE SMOOTH",
"87 272 OFFCURVE",
"102 306 OFFCURVE",
"111 334 CURVE SMOOTH",
"126 374 OFFCURVE",
"132 387 OFFCURVE",
"113 378 CURVE",
"101 409 LINE",
"121 418 OFFCURVE",
"136 416 OFFCURVE",
"147 406 CURVE SMOOTH",
"169 382 OFFCURVE",
"147 327 OFFCURVE",
"102 223 CURVE SMOOTH",
"83 178 OFFCURVE",
"63 133 OFFCURVE",
"51 94 CURVE SMOOTH",
"31 33 OFFCURVE",
"36 15 OFFCURVE",
"58 18 CURVE",
"61 -15 LINE"
);
}
);
width = 197;
}
);
unicode = 0069;
},
{
glyphname = j;
layers = (
{
guideLines = (
{
angle = 0;
position = "{197, 500}";
},
{
angle = 0;
position = "{189, 484}";
}
);
layerId = "B2224B7D-3358-49DE-B033-78E3556D2134";
name = Regular;
paths = (
{
closed = 1;
nodes = (
"-122 -274 OFFCURVE",
"-174 -268 OFFCURVE",
"-190 -182 CURVE",
"-159 -177 LINE",
"-148 -221 OFFCURVE",
"-137 -239 OFFCURVE",
"-85 -157 CURVE SMOOTH",
"-62 -119 OFFCURVE",
"-33 -66 OFFCURVE",
"-6 -1 CURVE SMOOTH",
"48 123 OFFCURVE",
"111 329 OFFCURVE",
"120 405 CURVE",
"152 401 LINE",
"143 322 OFFCURVE",
"80 116 OFFCURVE",
"24 -14 CURVE SMOOTH",
"-4 -79 OFFCURVE",
"-33 -135 OFFCURVE",
"-59 -175 CURVE SMOOTH"
);
},
{
closed = 1;
nodes = (
"151 485 OFFCURVE",
"142 492 OFFCURVE",
"143 505 CURVE SMOOTH",
"143 505 OFFCURVE",
"155 536 OFFCURVE",
"158 546 CURVE",
"172 542 LINE",
"174 545 OFFCURVE",
"176 549 OFFCURVE",
"180 554 CURVE",
"206 535 LINE",
"195 522 OFFCURVE",
"188 512 OFFCURVE",
"182 505 CURVE SMOOTH",
"178 497 OFFCURVE",
"170 485 OFFCURVE",
"159 485 CURVE SMOOTH"
);
}
);
width = 179;
}
);
unicode = 006A;
},
{
glyphname = k;
layers = (
{
anchors = (
{
name = bottom;
position = "{172, 0}";
}
);
layerId = "B2224B7D-3358-49DE-B033-78E3556D2134";
name = Regular;
paths = (
{
closed = 1;
nodes = (
"331 429 LINE",
"269 387 OFFCURVE",
"136 304 OFFCURVE",
"119 293 CURVE",
"141 359 OFFCURVE",
"226 629 OFFCURVE",
"249 700 CURVE",
"217 712 LINE",
"193 640 OFFCURVE",
"99 338 OFFCURVE",
"71 257 CURVE",
"49 236 OFFCURVE",
"39 214 OFFCURVE",
"46 185 CURVE",
"22 122 OFFCURVE",
"-3 59 OFFCURVE",
"-32 0 CURVE",
"-2 -15 LINE",
"22 35 OFFCURVE",
"44 86 OFFCURVE",
"65 139 CURVE",
"72 126 OFFCURVE",
"131 24 OFFCURVE",
"158 -26 CURVE",
"188 -10 LINE",
"161 41 OFFCURVE",
"88 167 OFFCURVE",
"82 184 CURVE",
"88 202 OFFCURVE",
"94 220 OFFCURVE",
"100 238 CURVE",
"120 254 OFFCURVE",
"288 358 OFFCURVE",
"351 400 CURVE"
);
}
);
width = 319;
}
);
unicode = 006B;
},
{
glyphname = l;
layers = (
{
anchors = (
{
name = top;
position = "{101, 400}";
},
{
name = bottom;
position = "{129, 0}";
},
{
name = topright;
position = "{164, 400}";
}
);
layerId = "B2224B7D-3358-49DE-B033-78E3556D2134";
name = Regular;
paths = (
{
closed = 1;
nodes = (
"66 -28 OFFCURVE",
"15 -19 OFFCURVE",
"27 50 CURVE SMOOTH",
"37 114 OFFCURVE",
"86 235 OFFCURVE",
"125 340 CURVE SMOOTH",
"156 418 OFFCURVE",
"185 497 OFFCURVE",
"205 562 CURVE SMOOTH",
"217 603 OFFCURVE",
"233 661 OFFCURVE",
"225 676 CURVE",
"223 680 OFFCURVE",
"215 675 OFFCURVE",
"193 661 CURVE",
"175 689 LINE",
"263 745 OFFCURVE",
"279 685 OFFCURVE",
"237 556 CURVE SMOOTH",
"215 490 OFFCURVE",
"184 406 OFFCURVE",
"152 326 CURVE SMOOTH",
"107 204 OFFCURVE",
"37 37 OFFCURVE",
"58 23 CURVE SMOOTH",
"64 19 OFFCURVE",
"75 31 OFFCURVE",
"97 47 CURVE",
"117 21 LINE"
);
}
);
width = 219;
}
);
unicode = 006C;
},
{
glyphname = m;
layers = (
{
layerId = "B2224B7D-3358-49DE-B033-78E3556D2134";
name = Regular;
paths = (
{
closed = 1;
nodes = (
"409 -10 OFFCURVE",
"429 102 OFFCURVE",
"474 247 CURVE SMOOTH",
"520 396 OFFCURVE",
"544 454 OFFCURVE",
"434 347 CURVE SMOOTH",
"396 311 OFFCURVE",
"368 270 OFFCURVE",
"359 260 CURVE SMOOTH",
"322 215 OFFCURVE",
"271 186 OFFCURVE",
"270 292 CURVE SMOOTH",
"269 366 OFFCURVE",
"277 446 OFFCURVE",
"202 341 CURVE SMOOTH",
"177 307 OFFCURVE",
"150 260 OFFCURVE",
"119 200 CURVE SMOOTH",
"67 97 OFFCURVE",
"23 -7 OFFCURVE",
"18 -18 CURVE SMOOTH",
"9 -39 OFFCURVE",
"-24 -21 OFFCURVE",
"-11 4 CURVE SMOOTH",
"-4 19 OFFCURVE",
"69 183 OFFCURVE",
"86 234 CURVE SMOOTH",
"112 310 OFFCURVE",
"108 356 OFFCURVE",
"74 358 CURVE",
"78 392 LINE",
"125 387 OFFCURVE",
"141 347 OFFCURVE",
"136 303 CURVE",
"254 499 OFFCURVE",
"309 462 OFFCURVE",
"304 290 CURVE SMOOTH",
"303 264 OFFCURVE",
"303 246 OFFCURVE",
"332 281 CURVE SMOOTH",
"378 338 OFFCURVE",
"419 388 OFFCURVE",
"469 426 CURVE SMOOTH",
"513 456 OFFCURVE",
"549 454 OFFCURVE",
"547 393 CURVE SMOOTH",
"544 359 OFFCURVE",
"526 299 OFFCURVE",
"507 237 CURVE SMOOTH",
"479 146 OFFCURVE",
"465 74 OFFCURVE",
"465 15 CURVE",
"465 15 OFFCURVE",
"456 -16 OFFCURVE",
"456 -16 CURVE"
);
}
);
width = 576;
}
);
unicode = 006D;
},
{
glyphname = n;
layers = (
{
anchors = (
{
name = top;
position = "{203, 400}";
},
{
name = bottom;
position = "{203, 0}";
}
);
layerId = "B2224B7D-3358-49DE-B033-78E3556D2134";
name = Regular;
paths = (
{
closed = 1;
nodes = (
"242 -17 OFFCURVE",
"263 65 OFFCURVE",
"306 185 CURVE SMOOTH",
"322 228 OFFCURVE",
"338 272 OFFCURVE",
"346 307 CURVE SMOOTH",
"362 374 OFFCURVE",
"349 392 OFFCURVE",
"271 353 CURVE SMOOTH",
"207 321 OFFCURVE",
"165 276 OFFCURVE",
"136 232 CURVE",
"123 193 OFFCURVE",
"65 36 OFFCURVE",
"43 0 CURVE SMOOTH",
"32 -16 OFFCURVE",
"9 -9 OFFCURVE",
"11 10 CURVE SMOOTH",
"11 10 OFFCURVE",
"14 24 OFFCURVE",
"18 34 CURVE SMOOTH",
"24 50 OFFCURVE",
"32 74 OFFCURVE",
"44 104 CURVE SMOOTH",
"57 137 OFFCURVE",
"66 182 OFFCURVE",
"107 246 CURVE",
"139 348 OFFCURVE",
"135 376 OFFCURVE",
"133 382 CURVE",
"129 387 OFFCURVE",
"118 377 OFFCURVE",
"96 356 CURVE",
"74 379 LINE",
"172 469 OFFCURVE",
"173 369 OFFCURVE",
"158 310 CURVE",
"186 339 OFFCURVE",
"220 363 OFFCURVE",
"257 381 CURVE SMOOTH",
"357 433 OFFCURVE",
"400 399 OFFCURVE",
"377 300 CURVE SMOOTH",
"368 263 OFFCURVE",
"352 218 OFFCURVE",
"336 174 CURVE SMOOTH",
"319 126 OFFCURVE",
"283 11 OFFCURVE",
"302 11 CURVE",
"300 -21 LINE"
);
}
);
width = 422;
}
);
unicode = 006E;
},
{
glyphname = o;
layers = (
{
layerId = "B2224B7D-3358-49DE-B033-78E3556D2134";
name = Regular;
paths = (
{
closed = 1;
nodes = (
"114 -97 OFFCURVE",
"-15 -86 OFFCURVE",
"-5 88 CURVE SMOOTH",
"1 205 OFFCURVE",
"59 338 OFFCURVE",
"163 391 CURVE",
"159 403 LINE",
"309 457 OFFCURVE",
"309 323 OFFCURVE",
"231 155 CURVE SMOOTH"
);
},
{
closed = 1;
nodes = (
"187 364 LINE",
"88 319 OFFCURVE",
"30 189 OFFCURVE",
"28 85 CURVE SMOOTH",
"25 -73 OFFCURVE",
"118 -1 OFFCURVE",
"198 171 CURVE SMOOTH",
"260 293 OFFCURVE",
"280 403 OFFCURVE",
"183 375 CURVE"
);
}
);
width = 296;
}
);
unicode = 006F;
},
{
glyphname = p;
layers = (
{
layerId = "B2224B7D-3358-49DE-B033-78E3556D2134";
name = Regular;
paths = (
{
closed = 1;
nodes = (
"-99 -321 OFFCURVE",
"-122 -323 OFFCURVE",
"-124 -300 CURVE SMOOTH",
"-130 -262 OFFCURVE",
"-32 15 OFFCURVE",
"13 111 CURVE",
"45 204 OFFCURVE",
"76 294 OFFCURVE",
"85 395 CURVE",
"119 389 LINE",
"116 347 OFFCURVE",
"108 306 OFFCURVE",
"96 267 CURVE",
"125 308 OFFCURVE",
"186 400 OFFCURVE",
"265 417 CURVE SMOOTH",
"362 439 OFFCURVE",
"408 367 OFFCURVE",
"380 271 CURVE SMOOTH",
"341 138 OFFCURVE",
"190 27 OFFCURVE",
"25 -5 CURVE",
"18 23 LINE",
"8 -8 OFFCURVE",
"-43 -180 OFFCURVE",
"-58 -221 CURVE SMOOTH",
"-70 -260 OFFCURVE",
"-79 -290 OFFCURVE",
"-88 -304 CURVE SMOOTH"
);
},
{
closed = 1;
nodes = (
"43 95 OFFCURVE",
"22 33 OFFCURVE",
"22 33 CURVE",
"206 75 OFFCURVE",
"315 182 OFFCURVE",
"345 280 CURVE SMOOTH",
"366 349 OFFCURVE",
"344 399 OFFCURVE",
"275 385 CURVE SMOOTH",
"233 375 OFFCURVE",
"186 336 OFFCURVE",
"139 269 CURVE SMOOTH",
"107 223 OFFCURVE",
"75 166 OFFCURVE",
"44 97 CURVE"
);
}
);
width = 401;
}
);
unicode = 0070;
},
{
glyphname = q;
layers = (
{
layerId = "B2224B7D-3358-49DE-B033-78E3556D2134";
name = Regular;
paths = (
{
closed = 1;
nodes = (
"83 -304 OFFCURVE",
"77 -278 OFFCURVE",
"108 -170 CURVE SMOOTH",
"125 -109 OFFCURVE",
"154 -28 OFFCURVE",
"191 70 CURVE SMOOTH",
"197 84 OFFCURVE",
"202 100 OFFCURVE",
"207 114 CURVE",
"181 78 OFFCURVE",
"156 51 OFFCURVE",
"132 30 CURVE SMOOTH",
"70 -28 OFFCURVE",
"8 -27 OFFCURVE",
"-1 62 CURVE SMOOTH",
"-7 96 OFFCURVE",
"-3 137 OFFCURVE",
"9 178 CURVE SMOOTH",
"23 221 OFFCURVE",
"45 262 OFFCURVE",
"75 297 CURVE SMOOTH",
"132 369 OFFCURVE",
"224 411 OFFCURVE",
"321 413 CURVE",
"322 390 LINE",
"332 415 OFFCURVE",
"334 417 OFFCURVE",
"336 419 CURVE SMOOTH",
"345 429 OFFCURVE",
"367 426 OFFCURVE",
"365 404 CURVE SMOOTH",
"365 404 OFFCURVE",
"313 274 OFFCURVE",
"294 243 CURVE",
"271 188 OFFCURVE",
"246 125 OFFCURVE",
"222 60 CURVE SMOOTH",
"104 -252 OFFCURVE",
"116 -293 OFFCURVE",
"119 -297 CURVE",
"119 -297 OFFCURVE",
"98 -314 OFFCURVE",
"93 -318 CURVE"
);
},
{
closed = 1;
nodes = (
"232 379 OFFCURVE",
"166 355 OFFCURVE",
"99 276 CURVE SMOOTH",
"40 206 OFFCURVE",
"21 121 OFFCURVE",
"30 66 CURVE SMOOTH",
"33 48 OFFCURVE",
"40 24 OFFCURVE",
"54 22 CURVE SMOOTH",
"74 19 OFFCURVE",
"121 50 OFFCURVE",
"190 144 CURVE SMOOTH",
"219 182 OFFCURVE",
"244 222 OFFCURVE",
"265 257 CURVE",
"279 290 OFFCURVE",
"302 347 OFFCURVE",
"318 382 CURVE"
);
}
);
width = 349;
}
);
unicode = 0071;
},
{
glyphname = r;
layers = (
{
anchors = (
{
name = top;
position = "{203, 400}";
},
{
name = bottom;
position = "{168, 0}";
}
);
layerId = "B2224B7D-3358-49DE-B033-78E3556D2134";
name = Regular;
paths = (
{
closed = 1;
nodes = (
"45 -34 OFFCURVE",
"14 -25 OFFCURVE",
"21 -3 CURVE SMOOTH",
"50 86 OFFCURVE",
"73 163 OFFCURVE",
"101 225 CURVE",
"112 260 OFFCURVE",
"117 291 OFFCURVE",
"124 315 CURVE SMOOTH",
"135 381 OFFCURVE",
"125 388 OFFCURVE",
"100 369 CURVE",
"79 395 LINE",
"141 433 OFFCURVE",
"172 394 OFFCURVE",
"157 322 CURVE",
"190 364 OFFCURVE",
"220 392 OFFCURVE",
"253 407 CURVE SMOOTH",
"309 428 OFFCURVE",
"331 420 OFFCURVE",
"386 379 CURVE",
"368 353 LINE",
"321 386 OFFCURVE",
"307 394 OFFCURVE",
"267 377 CURVE SMOOTH",
"216 356 OFFCURVE",
"185 313 OFFCURVE",
"142 227 CURVE SMOOTH",
"136 217 OFFCURVE",
"56 -4 OFFCURVE",
"52 -15 CURVE SMOOTH"
);
}
);
width = 372;
}
);
unicode = 0072;
},
{
glyphname = s;
layers = (
{
anchors = (
{
name = top;
position = "{54, 400}";
},
{
name = bottom;
position = "{54, 0}";
}
);
layerId = "B2224B7D-3358-49DE-B033-78E3556D2134";
name = Regular;
paths = (
{
closed = 1;
nodes = (
"55 -14 OFFCURVE",
"-9 -31 OFFCURVE",
"-48 4 CURVE SMOOTH",
"-28 28 LINE SMOOTH",
"-4 10 OFFCURVE",
"34 13 OFFCURVE",
"73 58 CURVE SMOOTH",
"133 131 OFFCURVE",
"108 202 OFFCURVE",
"87 263 CURVE SMOOTH",
"46 370 OFFCURVE",
"77 404 OFFCURVE",
"204 404 CURVE",
"205 372 LINE",
"100 372 OFFCURVE",
"87 363 OFFCURVE",
"116 273 CURVE SMOOTH",
"138 211 OFFCURVE",
"169 125 OFFCURVE",
"98 38 CURVE SMOOTH"
);
}
);
width = 209;
}
);
unicode = 0073;
},
{
glyphname = t;
layers = (
{
anchors = (
{
name = bottom;
position = "{107, 0}";
},
{
name = center;
position = "{107, 200}";
}
);
layerId = "B2224B7D-3358-49DE-B033-78E3556D2134";
name = Regular;
paths = (
{
closed = 1;
nodes = (
"270 385 LINE",
"257 384 OFFCURVE",
"238 381 OFFCURVE",
"217 377 CURVE",
"234 422 OFFCURVE",
"249 465 OFFCURVE",
"261 507 CURVE SMOOTH",
"299 624 OFFCURVE",
"299 687 OFFCURVE",
"268 712 CURVE",
"247 686 LINE SMOOTH",
"254 680 OFFCURVE",
"271 649 OFFCURVE",
"229 518 CURVE SMOOTH",
"216 471 OFFCURVE",
"198 421 OFFCURVE",
"178 370 CURVE",
"138 364 OFFCURVE",
"97 355 OFFCURVE",
"77 350 CURVE",
"85 318 LINE",
"102 321 OFFCURVE",
"132 327 OFFCURVE",
"164 334 CURVE",
"149 296 OFFCURVE",
"133 258 OFFCURVE",
"119 223 CURVE SMOOTH",
"48 50 OFFCURVE",
"33 11 OFFCURVE",
"49 -7 CURVE",
"54 -12 OFFCURVE",
"62 -15 OFFCURVE",
"69 -13 CURVE",
"72 -13 LINE",
"73 -12 LINE",
"85 19 LINE",
"84 22 OFFCURVE",
"78 26 OFFCURVE",
"97 77 CURVE SMOOTH",
"116 135 OFFCURVE",
"175 272 OFFCURVE",
"203 341 CURVE",
"232 347 OFFCURVE",
"259 351 OFFCURVE",
"274 352 CURVE"
);
}
);
width = 285;
}
);
unicode = 0074;
},
{
glyphname = u;
layers = (
{
anchors = (
{
name = top;
position = "{201, 400}";
},
{
name = ogonek;
position = "{344, 10}";
}
);
layerId = "B2224B7D-3358-49DE-B033-78E3556D2134";
name = Regular;
paths = (
{
closed = 1;
nodes = (
"251 22 OFFCURVE",
"241 37 OFFCURVE",
"273 139 CURVE SMOOTH",
"294 205 OFFCURVE",
"321 275 OFFCURVE",
"334 312 CURVE SMOOTH",
"351 349 OFFCURVE",
"359 372 OFFCURVE",
"365 385 CURVE",
"374 406 OFFCURVE",
"369 413 OFFCURVE",
"361 416 CURVE SMOOTH",
"351 420 OFFCURVE",
"343 416 OFFCURVE",
"336 402 CURVE SMOOTH",
"283 280 OFFCURVE",
"244 212 OFFCURVE",
"222 175 CURVE SMOOTH",
"196 134 OFFCURVE",
"159 92 OFFCURVE",
"127 63 CURVE SMOOTH",
"32 -20 OFFCURVE",
"41 85 OFFCURVE",
"91 195 CURVE SMOOTH",
"124 269 OFFCURVE",
"171 375 OFFCURVE",
"139 407 CURVE SMOOTH",
"128 418 OFFCURVE",
"108 417 OFFCURVE",
"83 406 CURVE",
"98 377 LINE",
"109 381 OFFCURVE",
"116 384 OFFCURVE",
"117 382 CURVE",
"123 358 OFFCURVE",
"99 287 OFFCURVE",
"62 208 CURVE SMOOTH",
"-11 50 OFFCURVE",
"15 -77 OFFCURVE",
"149 39 CURVE SMOOTH",
"182 69 OFFCURVE",
"216 110 OFFCURVE",
"242 151 CURVE",
"210 45 OFFCURVE",
"206 17 OFFCURVE",
"234 -9 CURVE",
"252 18 LINE"
);
}
);
width = 377;
}
);
unicode = 0075;
},
{
glyphname = v;
layers = (
{
layerId = "B2224B7D-3358-49DE-B033-78E3556D2134";
name = Regular;
paths = (
{
closed = 1;
nodes = (
"47 -37 OFFCURVE",
"26 -8 OFFCURVE",
"34 55 CURVE SMOOTH",
"35 77 OFFCURVE",
"57 163 OFFCURVE",
"74 287 CURVE SMOOTH",
"82 344 OFFCURVE",
"77 383 OFFCURVE",
"76 385 CURVE",
"76 385 OFFCURVE",
"76 385 OFFCURVE",
"76 384 CURVE",
"102 400 LINE",
"117 375 OFFCURVE",
"108 283 OFFCURVE",
"82 148 CURVE SMOOTH",
"75 102 OFFCURVE",
"56 32 OFFCURVE",
"62 32 CURVE",
"69 32 OFFCURVE",
"93 68 OFFCURVE",
"112 97 CURVE SMOOTH",
"141 143 OFFCURVE",
"312 422 OFFCURVE",
"338 443 CURVE",
"359 417 LINE",
"341 401 OFFCURVE",
"166 114 OFFCURVE",
"135 68 CURVE SMOOTH",
"117 41 OFFCURVE",
"102 23 OFFCURVE",
"90 10 CURVE SMOOTH"
);
}
);
width = 321;
}
);
unicode = 0076;
},
{
glyphname = w;
layers = (
{
anchors = (
{
name = top;
position = "{205, 400}";
}
);
layerId = "B2224B7D-3358-49DE-B033-78E3556D2134";
name = Regular;
paths = (
{
closed = 1;
nodes = (
"256 -53 OFFCURVE",
"175 -54 OFFCURVE",
"196 147 CURVE SMOOTH",
"202 204 OFFCURVE",
"184 210 OFFCURVE",
"124 114 CURVE SMOOTH",
"35 -28 OFFCURVE",
"10 89 OFFCURVE",
"61 277 CURVE SMOOTH",
"71 314 OFFCURVE",
"84 362 OFFCURVE",
"84 410 CURVE",
"116 408 LINE",
"115 356 OFFCURVE",
"102 311 OFFCURVE",
"91 267 CURVE SMOOTH",
"66 167 OFFCURVE",
"45 41 OFFCURVE",
"104 143 CURVE SMOOTH",
"159 238 OFFCURVE",
"243 278 OFFCURVE",
"228 141 CURVE SMOOTH",
"206 -59 OFFCURVE",
"279 21 OFFCURVE",
"380 272 CURVE SMOOTH",
"404 331 OFFCURVE",
"428 386 OFFCURVE",
"450 418 CURVE",
"476 400 LINE",
"443 353 OFFCURVE",
"374 172 OFFCURVE",
"338 101 CURVE SMOOTH"
);
}
);
width = 455;
}
);
unicode = 0077;
},
{
glyphname = x;
layers = (
{
layerId = "B2224B7D-3358-49DE-B033-78E3556D2134";
name = Regular;
paths = (
{
closed = 1;
nodes = (
"225 414 LINE",
"198 355 OFFCURVE",
"164 296 OFFCURVE",
"129 238 CURVE",
"126 293 OFFCURVE",
"122 349 OFFCURVE",
"114 404 CURVE",
"81 400 LINE",
"91 330 OFFCURVE",
"95 259 OFFCURVE",
"99 190 CURVE",
"81 161 OFFCURVE",
"5 46 OFFCURVE",
"-13 16 CURVE",
"15 -1 LINE",
"33 28 OFFCURVE",
"92 118 OFFCURVE",
"102 133 CURVE",
"105 67 OFFCURVE",
"108 -2 OFFCURVE",
"115 -70 CURVE",
"148 -66 LINE",
"140 2 OFFCURVE",
"133 166 OFFCURVE",
"132 180 CURVE",
"177 251 OFFCURVE",
"221 325 OFFCURVE",
"255 401 CURVE"
);
}
);
width = 267;
}
);
unicode = 0078;
},
{
glyphname = y;
layers = (
{
anchors = (
{
name = top;
position = "{138, 400}";
}
);
layerId = "B2224B7D-3358-49DE-B033-78E3556D2134";
name = Regular;
paths = (
{
closed = 1;
nodes = (
"-57 -278 OFFCURVE",
"-57 -278 OFFCURVE",
"-58 -278 CURVE SMOOTH",
"-138 -275 OFFCURVE",
"-138 -161 OFFCURVE",
"-33 -106 CURVE",
"-18 -135 LINE",
"-70 -161 OFFCURVE",
"-117 -243 OFFCURVE",
"-57 -246 CURVE SMOOTH",
"-48 -246 OFFCURVE",
"5 -238 OFFCURVE",
"77 -135 CURVE SMOOTH",
"122 -70 OFFCURVE",
"165 20 OFFCURVE",
"205 129 CURVE",
"109 -56 OFFCURVE",
"-31 -65 OFFCURVE",
"25 119 CURVE SMOOTH",
"40 166 OFFCURVE",
"104 306 OFFCURVE",
"114 339 CURVE SMOOTH",
"124 368 OFFCURVE",
"124 379 OFFCURVE",
"123 382 CURVE",
"120 382 OFFCURVE",
"113 381 OFFCURVE",
"98 374 CURVE",
"83 404 LINE",
"103 413 OFFCURVE",
"129 422 OFFCURVE",
"146 407 CURVE SMOOTH",
"170 383 OFFCURVE",
"149 332 OFFCURVE",
"107 237 CURVE SMOOTH",
"88 193 OFFCURVE",
"69 149 OFFCURVE",
"57 110 CURVE SMOOTH",
"17 -13 OFFCURVE",
"93 -8 OFFCURVE",
"176 144 CURVE SMOOTH",
"216 217 OFFCURVE",
"249 303 OFFCURVE",
"268 350 CURVE SMOOTH",
"280 378 OFFCURVE",
"283 402 OFFCURVE",
"304 397 CURVE SMOOTH",
"329 386 OFFCURVE",
"309 354 OFFCURVE",
"297 309 CURVE SMOOTH",
"267 202 OFFCURVE",
"234 107 OFFCURVE",
"200 26 CURVE SMOOTH",
"169 -46 OFFCURVE",
"137 -106 OFFCURVE",
"104 -154 CURVE SMOOTH",
"30 -261 OFFCURVE",
"-28 -278 OFFCURVE",
"-57 -278 CURVE SMOOTH"
);
}
);
width = 341;
}
);
unicode = 0079;
},
{
glyphname = z;
layers = (
{
anchors = (
{
name = top;
position = "{202, 400}";
}
);
layerId = "B2224B7D-3358-49DE-B033-78E3556D2134";
name = Regular;
paths = (
{
closed = 1;
nodes = (
"86 366 LINE",
"125 368 OFFCURVE",
"200 379 OFFCURVE",
"249 381 CURVE SMOOTH",
"309 383 OFFCURVE",
"312 381 OFFCURVE",
"262 345 CURVE SMOOTH",
"215 309 OFFCURVE",
"153 263 OFFCURVE",
"102 214 CURVE",
"81 214 OFFCURVE",
"60 214 OFFCURVE",
"39 213 CURVE",
"43 180 LINE",
"52 180 OFFCURVE",
"60 181 OFFCURVE",
"69 181 CURVE",
"24 132 OFFCURVE",
"-5 85 OFFCURVE",
"7 48 CURVE",
"20 16 OFFCURVE",
"78 0 OFFCURVE",
"146 0 CURVE",
"143 33 LINE",
"94 33 OFFCURVE",
"43 42 OFFCURVE",
"39 58 CURVE",
"31 76 OFFCURVE",
"51 117 OFFCURVE",
"117 182 CURVE",
"151 182 OFFCURVE",
"185 182 OFFCURVE",
"219 182 CURVE SMOOTH",
"229 182 LINE",
"226 215 LINE",
"216 215 LINE SMOOTH",
"195 215 OFFCURVE",
"174 215 OFFCURVE",
"153 215 CURVE",
"187 245 OFFCURVE",
"229 279 OFFCURVE",
"281 318 CURVE SMOOTH",
"359 376 OFFCURVE",
"350 417 OFFCURVE",
"256 414 CURVE SMOOTH",
"205 414 OFFCURVE",
"115 400 OFFCURVE",
"81 400 CURVE"
);
}
);
width = 319;
}
);
unicode = 007A;
},
{
glyphname = fi;
layers = (
{
layerId = "B2224B7D-3358-49DE-B033-78E3556D2134";
name = Regular;
paths = (
{
closed = 1;
nodes = (
"406 700 LINE",
"342 733 OFFCURVE",
"287 729 OFFCURVE",
"231 587 CURVE SMOOTH",
"207 526 OFFCURVE",
"184 450 OFFCURVE",
"161 368 CURVE",
"130 366 OFFCURVE",
"96 365 OFFCURVE",
"60 365 CURVE",
"60 332 LINE",
"92 332 OFFCURVE",
"122 333 OFFCURVE",
"151 334 CURVE",
"112 201 OFFCURVE",
"62 22 OFFCURVE",
"8 -35 CURVE",
"-14 -60 OFFCURVE",
"-29 -57 OFFCURVE",
"-34 -55 CURVE",
"-42 -87 LINE",
"-26 -93 OFFCURVE",
"6 -89 OFFCURVE",
"33 -57 CURVE SMOOTH",
"104 22 OFFCURVE",
"176 305 OFFCURVE",
"185 337 CURVE",
"218 339 OFFCURVE",
"312 352 OFFCURVE",
"370 378 CURVE SMOOTH",
"389 387 OFFCURVE",
"383 374 OFFCURVE",
"368 334 CURVE",
"359 306 OFFCURVE",
"344 272 OFFCURVE",
"329 236 CURVE SMOOTH",
"309 191 OFFCURVE",
"289 144 OFFCURVE",
"276 104 CURVE SMOOTH",
"251 24 OFFCURVE",
"262 -15 OFFCURVE",
"318 -15 CURVE",
"315 18 LINE",
"293 15 OFFCURVE",
"288 33 OFFCURVE",
"308 94 CURVE SMOOTH",
"320 133 OFFCURVE",
"340 178 OFFCURVE",
"359 223 CURVE SMOOTH",
"404 327 OFFCURVE",
"426 382 OFFCURVE",
"404 406 CURVE",
"393 416 OFFCURVE",
"378 418 OFFCURVE",
"358 409 CURVE SMOOTH",
"302 383 OFFCURVE",
"222 373 OFFCURVE",
"195 370 CURVE",
"218 447 OFFCURVE",
"239 518 OFFCURVE",
"262 575 CURVE SMOOTH",
"312 701 OFFCURVE",
"355 691 OFFCURVE",
"393 671 CURVE"
);
},
{
closed = 1;
nodes = (
"463 536 LINE",
"463 540 OFFCURVE",
"467 544 OFFCURVE",
"466 548 CURVE",
"431 543 LINE",
"423 510 OFFCURVE",
"410 481 OFFCURVE",
"434 484 CURVE SMOOTH",
"453 486 OFFCURVE",
"463 516 OFFCURVE",
"476 534 CURVE"
);
}
);
width = 454;
}
);
unicode = FB01;
},
{
glyphname = fl;
layers = (
{
layerId = "B2224B7D-3358-49DE-B033-78E3556D2134";
name = Regular;
paths = (
{
closed = 1;
nodes = (
"60 332 LINE",
"92 332 OFFCURVE",
"122 333 OFFCURVE",
"151 334 CURVE",
"112 201 OFFCURVE",
"62 22 OFFCURVE",
"8 -35 CURVE",
"-14 -60 OFFCURVE",
"-29 -57 OFFCURVE",
"-34 -55 CURVE",
"-42 -87 LINE",
"-26 -93 OFFCURVE",
"6 -89 OFFCURVE",
"33 -57 CURVE SMOOTH",
"104 22 OFFCURVE",
"176 305 OFFCURVE",
"185 337 CURVE",
"218 339 OFFCURVE",
"248 343 OFFCURVE",
"278 348 CURVE",
"272 380 LINE",
"247 376 OFFCURVE",
"222 373 OFFCURVE",
"195 370 CURVE",
"218 447 OFFCURVE",
"239 518 OFFCURVE",
"262 575 CURVE SMOOTH",
"312 701 OFFCURVE",
"355 691 OFFCURVE",
"393 671 CURVE",
"406 700 LINE",
"342 733 OFFCURVE",
"287 729 OFFCURVE",
"231 587 CURVE SMOOTH",
"207 526 OFFCURVE",
"184 450 OFFCURVE",
"161 368 CURVE",
"130 366 OFFCURVE",
"96 365 OFFCURVE",
"60 365 CURVE"
);
},
{
closed = 1;
nodes = (
"393 614 LINE",
"455 625 OFFCURVE",
"458 567 OFFCURVE",
"428 465 CURVE SMOOTH",
"411 405 OFFCURVE",
"313 146 OFFCURVE",
"298 100 CURVE SMOOTH",
"291 76 OFFCURVE",
"278 30 OFFCURVE",
"282 19 CURVE",
"284 17 OFFCURVE",
"295 23 OFFCURVE",
"313 36 CURVE",
"332 10 LINE",
"308 -6 OFFCURVE",
"285 -25 OFFCURVE",
"262 -8 CURVE SMOOTH",
"238 10 OFFCURVE",
"253 63 OFFCURVE",
"264 102 CURVE SMOOTH",
"278 150 OFFCURVE",
"381 416 OFFCURVE",
"397 474 CURVE SMOOTH",
"426 569 OFFCURVE",
"420 586 OFFCURVE",
"400 583 CURVE"
);
}
);
width = 435;
}
);
unicode = FB02;
},
{
glyphname = T_h;
layers = (
{
anchors = (
{
name = top;
position = "{310, 400}";
}
);
layerId = "B2224B7D-3358-49DE-B033-78E3556D2134";
name = Regular;
paths = (
{
closed = 1;
nodes = (
"120 563 LINE",
"149 555 OFFCURVE",
"195 558 OFFCURVE",
"245 563 CURVE",
"217 348 OFFCURVE",
"132 149 OFFCURVE",
"61 0 CURVE",
"90 -16 LINE",
"181 172 OFFCURVE",
"256 372 OFFCURVE",
"278 567 CURVE",
"361 577 OFFCURVE",
"448 589 OFFCURVE",
"485 572 CURVE",
"485 563 OFFCURVE",
"481 540 OFFCURVE",
"457 472 CURVE SMOOTH",
"441 426 OFFCURVE",
"395 317 OFFCURVE",
"394 314 CURVE",
"375 265 OFFCURVE",
"315 106 OFFCURVE",
"297 55 CURVE SMOOTH",
"280 8 OFFCURVE",
"274 -3 OFFCURVE",
"292 -8 CURVE",
"301 -12 OFFCURVE",
"312 -16 OFFCURVE",
"322 16 CURVE SMOOTH",
"363 143 OFFCURVE",
"411 227 OFFCURVE",
"444 275 CURVE SMOOTH",
"489 341 OFFCURVE",
"527 369 OFFCURVE",
"546 373 CURVE",
"597 386 OFFCURVE",
"537 207 OFFCURVE",
"522 167 CURVE",
"486 55 OFFCURVE",
"466 -18 OFFCURVE",
"520 -18 CURVE SMOOTH",
"523 -18 OFFCURVE",
"528 -18 OFFCURVE",
"531 -17 CURVE",
"522 16 LINE",
"522 16 OFFCURVE",
"522 16 OFFCURVE",
"521 16 CURVE",
"520 20 OFFCURVE",
"519 32 OFFCURVE",
"528 63 CURVE",
"536 102 OFFCURVE",
"566 187 OFFCURVE",
"574 217 CURVE",
"614 338 OFFCURVE",
"605 420 OFFCURVE",
"540 406 CURVE SMOOTH",
"509 400 OFFCURVE",
"471 368 OFFCURVE",
"431 315 CURVE",
"452 381 OFFCURVE",
"550 568 OFFCURVE",
"508 598 CURVE",
"430 644 OFFCURVE",
"209 575 OFFCURVE",
"128 596 CURVE"
);
}
);
width = 654;
}
);
},
{
glyphname = f_f;
layers = (
{
background = {
paths = (
{
closed = 1;
nodes = (
"150 -183 LINE",
"170 -168 OFFCURVE",
"194 -123 OFFCURVE",
"223 -48 CURVE SMOOTH",
"249 23 OFFCURVE",
"277 110 OFFCURVE",
"306 204 CURVE SMOOTH",
"343 324 OFFCURVE",
"382 449 OFFCURVE",
"423 545 CURVE SMOOTH",
"445 598 OFFCURVE",
"465 638 OFFCURVE",
"486 666 CURVE SMOOTH",
"511 701 OFFCURVE",
"536 719 OFFCURVE",
"562 722 CURVE SMOOTH",
"598 727 OFFCURVE",
"628 698 OFFCURVE",
"654 654 CURVE",
"627 638 LINE",
"605 675 OFFCURVE",
"584 692 OFFCURVE",
"565 690 CURVE SMOOTH",
"543 688 OFFCURVE",
"505 659 OFFCURVE",
"452 532 CURVE SMOOTH",
"412 437 OFFCURVE",
"374 314 OFFCURVE",
"336 194 CURVE SMOOTH",
"308 101 OFFCURVE",
"280 12 OFFCURVE",
"253 -59 CURVE SMOOTH",
"221 -144 OFFCURVE",
"195 -189 OFFCURVE",
"169 -209 CURVE"
);
},
{
closed = 1;
nodes = (
"70 332 LINE",
"102.317 332 OFFCURVE",
"132.413 332.74 OFFCURVE",
"160.916 334.277 CURVE",
"122 201 OFFCURVE",
"72 22 OFFCURVE",
"18 -35 CURVE",
"-4 -60 OFFCURVE",
"-19 -57 OFFCURVE",
"-24 -55 CURVE",
"-32 -87 LINE",
"-16 -93 OFFCURVE",
"16 -89 OFFCURVE",
"43 -57 CURVE SMOOTH",
"114 22 OFFCURVE",
"186 305 OFFCURVE",
"195.222 336.575 CURVE",
"372 354 OFFCURVE",
"360 365 OFFCURVE",
"493 349 CURVE",
"498 380 LINE",
"342 400 OFFCURVE",
"313 373 OFFCURVE",
"205.172 370.499 CURVE",
"228 447 OFFCURVE",
"249 518 OFFCURVE",
"272 575 CURVE SMOOTH",
"322 701 OFFCURVE",
"398 658 OFFCURVE",
"441 577 CURVE",
"459 608 LINE",
"398 715 OFFCURVE",
"297 729 OFFCURVE",
"241 587 CURVE SMOOTH",
"216.911 526.332 OFFCURVE",
"194.415 449.745 OFFCURVE",
"170.669 367.891 CURVE",
"139.6 365.964 OFFCURVE",
"106.438 365 OFFCURVE",
"70 365 CURVE"
);
}
);
};
layerId = "B2224B7D-3358-49DE-B033-78E3556D2134";
name = Regular;
paths = (
{
closed = 1;
nodes = (
"60 332 LINE",
"92 332 OFFCURVE",
"122 333 OFFCURVE",
"151 334 CURVE",
"112 201 OFFCURVE",
"62 22 OFFCURVE",
"8 -35 CURVE",
"-14 -60 OFFCURVE",
"-29 -57 OFFCURVE",
"-34 -55 CURVE",
"-42 -87 LINE",
"-26 -93 OFFCURVE",
"6 -89 OFFCURVE",
"33 -57 CURVE SMOOTH",
"104 22 OFFCURVE",
"176 305 OFFCURVE",
"185 337 CURVE",
"249 341 OFFCURVE",
"340 347 OFFCURVE",
"382 351 CURVE",
"367 303 OFFCURVE",
"351 253 OFFCURVE",
"336 204 CURVE SMOOTH",
"307 110 OFFCURVE",
"279 23 OFFCURVE",
"253 -48 CURVE SMOOTH",
"224 -123 OFFCURVE",
"200 -168 OFFCURVE",
"180 -183 CURVE",
"199 -209 LINE",
"225 -189 OFFCURVE",
"251 -144 OFFCURVE",
"283 -59 CURVE SMOOTH",
"310 12 OFFCURVE",
"338 101 OFFCURVE",
"366 194 CURVE SMOOTH",
"383 248 OFFCURVE",
"400 302 OFFCURVE",
"417 354 CURVE",
"453 356 OFFCURVE",
"512 356 OFFCURVE",
"536 349 CURVE",
"547 378 LINE",
"523 386 OFFCURVE",
"463 388 OFFCURVE",
"428 386 CURVE",
"446 439 OFFCURVE",
"464 488 OFFCURVE",
"482 532 CURVE SMOOTH",
"535 659 OFFCURVE",
"573 688 OFFCURVE",
"595 690 CURVE SMOOTH",
"614 692 OFFCURVE",
"635 675 OFFCURVE",
"657 638 CURVE",
"684 654 LINE",
"658 698 OFFCURVE",
"628 727 OFFCURVE",
"592 722 CURVE SMOOTH",
"566 719 OFFCURVE",
"541 701 OFFCURVE",
"516 666 CURVE SMOOTH",
"506 652 OFFCURVE",
"495 637 OFFCURVE",
"485 617 CURVE",
"425 706 OFFCURVE",
"287 728 OFFCURVE",
"231 587 CURVE SMOOTH",
"207 526 OFFCURVE",
"184 450 OFFCURVE",
"161 368 CURVE",
"130 366 OFFCURVE",
"96 365 OFFCURVE",
"60 365 CURVE"
);
},
{
closed = 1;
nodes = (
"432 497 OFFCURVE",
"412 442 OFFCURVE",
"393 383 CURVE",
"344 379 OFFCURVE",
"249 371 OFFCURVE",
"195 370 CURVE",
"218 447 OFFCURVE",
"239 518 OFFCURVE",
"262 575 CURVE SMOOTH",
"312 700 OFFCURVE",
"426 662 OFFCURVE",
"469 582 CURVE",
"464 571 OFFCURVE",
"459 558 OFFCURVE",
"453 545 CURVE SMOOTH"
);
}
);
width = 535;
}
);
},
{
glyphname = f_f_i;
layers = (
{
layerId = "B2224B7D-3358-49DE-B033-78E3556D2134";
name = Regular;
paths = (
{
closed = 1;
nodes = (
"694 654 LINE",
"681 676 OFFCURVE",
"667 694 OFFCURVE",
"652 706 CURVE SMOOTH",
"637 718 OFFCURVE",
"620 725 OFFCURVE",
"602 722 CURVE",
"576 719 OFFCURVE",
"551 701 OFFCURVE",
"526 666 CURVE SMOOTH",
"516 652 OFFCURVE",
"505 637 OFFCURVE",
"495 617 CURVE",
"435 706 OFFCURVE",
"296.747 728.357 OFFCURVE",
"241 586.999 CURVE SMOOTH",
"217 525.999 OFFCURVE",
"194 449.999 OFFCURVE",
"171 367.999 CURVE",
"140 365.999 OFFCURVE",
"106 364.999 OFFCURVE",
"70 365 CURVE",
"70 332 LINE",
"102 332 OFFCURVE",
"132 333 OFFCURVE",
"161 334 CURVE",
"122 201 OFFCURVE",
"72 22 OFFCURVE",
"18 -35 CURVE",
"-4 -60 OFFCURVE",
"-19 -57 OFFCURVE",
"-24 -55 CURVE",
"-32 -87 LINE",
"-16 -93 OFFCURVE",
"16 -89 OFFCURVE",
"43 -57 CURVE SMOOTH",
"114 22 OFFCURVE",
"186 305 OFFCURVE",
"195 337 CURVE",
"258.911 341.408 OFFCURVE",
"350 347 OFFCURVE",
"392 351 CURVE",
"377 303 OFFCURVE",
"361 253 OFFCURVE",
"346 204 CURVE SMOOTH",
"317 110 OFFCURVE",
"289 23 OFFCURVE",
"263 -48 CURVE SMOOTH",
"234 -123 OFFCURVE",
"210 -168 OFFCURVE",
"190 -183 CURVE",
"209 -209 LINE",
"235 -189 OFFCURVE",
"261 -144 OFFCURVE",
"293 -59 CURVE SMOOTH",
"320 12 OFFCURVE",
"348 101 OFFCURVE",
"376 194 CURVE SMOOTH",
"393 248 OFFCURVE",
"410 302 OFFCURVE",
"427 354 CURVE",
"463 356 OFFCURVE",
"573 358 OFFCURVE",
"613 378 CURVE SMOOTH",
"632 387 OFFCURVE",
"626 374 OFFCURVE",
"611 334 CURVE",
"602 306 OFFCURVE",
"587 272 OFFCURVE",
"572 236 CURVE SMOOTH",
"552 191 OFFCURVE",
"532 144 OFFCURVE",
"519 104 CURVE SMOOTH",
"494 24 OFFCURVE",
"505 -15 OFFCURVE",
"561 -15 CURVE",
"558 18 LINE",
"536 15 OFFCURVE",
"531 33 OFFCURVE",
"551 94 CURVE SMOOTH",
"563 133 OFFCURVE",
"583 178 OFFCURVE",
"602 223 CURVE SMOOTH",
"647 327 OFFCURVE",
"669 382 OFFCURVE",
"647 406 CURVE",
"636 416 OFFCURVE",
"619 421 OFFCURVE",
"601 409 CURVE SMOOTH",
"567 387 OFFCURVE",
"473 388 OFFCURVE",
"438 386 CURVE",
"456 439 OFFCURVE",
"474 488 OFFCURVE",
"492 532 CURVE SMOOTH",
"545 659 OFFCURVE",
"583 688 OFFCURVE",
"605 690 CURVE SMOOTH",
"613 691 OFFCURVE",
"622 688 OFFCURVE",
"631 682 CURVE",
"642 674 OFFCURVE",
"655 659 OFFCURVE",
"667 638 CURVE"
);
},
{
closed = 1;
nodes = (
"354 379 OFFCURVE",
"258.89 371.497 OFFCURVE",
"205 370 CURVE",
"228 447 OFFCURVE",
"249 518 OFFCURVE",
"272 575 CURVE SMOOTH",
"321.701 700.247 OFFCURVE",
"436 662 OFFCURVE",
"479 582 CURVE",
"474 571 OFFCURVE",
"469 558 OFFCURVE",
"463 545 CURVE SMOOTH",
"442 497 OFFCURVE",
"422 442 OFFCURVE",
"403 383 CURVE"
);
},
{
closed = 1;
nodes = (
"706 536 LINE",
"706 540 OFFCURVE",
"710 544 OFFCURVE",
"709 548 CURVE",
"674 543 LINE",
"666 510 OFFCURVE",
"653 481 OFFCURVE",
"677 484 CURVE SMOOTH",
"696 486 OFFCURVE",
"706 516 OFFCURVE",
"719 534 CURVE"
);
}
);
width = 629;
}
);
},
{
glyphname = f_f_l;
layers = (
{
layerId = "B2224B7D-3358-49DE-B033-78E3556D2134";
name = Regular;
paths = (
{
closed = 1;
nodes = (
"70 332 LINE",
"102 332 OFFCURVE",
"132 333 OFFCURVE",
"161 334 CURVE",
"122 201 OFFCURVE",
"72 22 OFFCURVE",
"18 -35 CURVE",
"-4 -60 OFFCURVE",
"-19 -57 OFFCURVE",
"-24 -55 CURVE",
"-32 -87 LINE",
"-16 -93 OFFCURVE",
"16 -89 OFFCURVE",
"43 -57 CURVE SMOOTH",
"114 22 OFFCURVE",
"186 305 OFFCURVE",
"195 337 CURVE",
"258.911 341.408 OFFCURVE",
"350 347 OFFCURVE",
"392 351 CURVE",
"377 303 OFFCURVE",
"361 253 OFFCURVE",
"346 204 CURVE SMOOTH",
"317 110 OFFCURVE",
"289 23 OFFCURVE",
"263 -48 CURVE SMOOTH",
"234 -123 OFFCURVE",
"210 -168 OFFCURVE",
"190 -183 CURVE",
"209 -209 LINE",
"235 -189 OFFCURVE",
"261 -144 OFFCURVE",
"293 -59 CURVE SMOOTH",
"320 12 OFFCURVE",
"348 101 OFFCURVE",
"376 194 CURVE SMOOTH",
"393 248 OFFCURVE",
"410 302 OFFCURVE",
"427 354 CURVE",
"463 356 OFFCURVE",
"502 356 OFFCURVE",
"526 349 CURVE",
"537 378 LINE",
"513 386 OFFCURVE",
"473 388 OFFCURVE",
"438 386 CURVE",
"456 439 OFFCURVE",
"474 488 OFFCURVE",
"492 532 CURVE SMOOTH",
"545 659 OFFCURVE",
"583 688 OFFCURVE",
"605 690 CURVE SMOOTH",
"624 692 OFFCURVE",
"651 680 OFFCURVE",
"662 668 CURVE",
"676 700 LINE",
"659 714 OFFCURVE",
"638 727 OFFCURVE",
"602 722 CURVE SMOOTH",
"576 719 OFFCURVE",
"551 701 OFFCURVE",
"526 666 CURVE SMOOTH",
"516 652 OFFCURVE",
"505 637 OFFCURVE",
"495 617 CURVE",
"435 706 OFFCURVE",
"296.747 728.357 OFFCURVE",
"241 586.999 CURVE SMOOTH",
"217 525.999 OFFCURVE",
"194 449.999 OFFCURVE",
"171 367.999 CURVE",
"140 365.999 OFFCURVE",
"106 364.999 OFFCURVE",
"70 365 CURVE"
);
},
{
closed = 1;
nodes = (
"442 497 OFFCURVE",
"422 442 OFFCURVE",
"403 383 CURVE",
"354 379 OFFCURVE",
"258.89 371.497 OFFCURVE",
"205 370 CURVE",
"228 447 OFFCURVE",
"249 518 OFFCURVE",
"272 575 CURVE SMOOTH",
"321.701 700.247 OFFCURVE",
"436 662 OFFCURVE",
"479 582 CURVE",
"474 571 OFFCURVE",
"469 558 OFFCURVE",
"463 545 CURVE SMOOTH"
);
},
{
closed = 1;
nodes = (
"662 614 LINE",
"724 625 OFFCURVE",
"727 567 OFFCURVE",
"697 465 CURVE SMOOTH",
"680 405 OFFCURVE",
"582 146 OFFCURVE",
"567 100 CURVE SMOOTH",
"560 76 OFFCURVE",
"547 30 OFFCURVE",
"551 19 CURVE",
"553 17 OFFCURVE",
"564 23 OFFCURVE",
"582 36 CURVE",
"601 10 LINE",
"577 -6 OFFCURVE",
"554 -25 OFFCURVE",
"531 -8 CURVE SMOOTH",
"507 10 OFFCURVE",
"522 63 OFFCURVE",
"533 102 CURVE SMOOTH",
"547 150 OFFCURVE",
"650 416 OFFCURVE",
"666 474 CURVE SMOOTH",
"695 569 OFFCURVE",
"689 586 OFFCURVE",
"669 583 CURVE"
);
}
);
width = 703;
}
);
},
{
glyphname = f_f_t;
layers = (
{
layerId = "B2224B7D-3358-49DE-B033-78E3556D2134";
name = Regular;
paths = (
{
closed = 1;
nodes = (
"646 376 LINE",
"625.761 372.019 OFFCURVE",
"594.404 369.909 OFFCURVE",
"559.16 369.086 CURVE",
"599 471 OFFCURVE",
"632 556 OFFCURVE",
"639 626 CURVE",
"605 626 LINE",
"597 557 OFFCURVE",
"561 463 OFFCURVE",
"527 372 CURVE",
"525.614 368.674 LINE",
"471.88 368.552 OFFCURVE",
"414.65 370.77 OFFCURVE",
"376.156 373.53 CURVE",
"404.085 468.294 OFFCURVE",
"427.02 547.052 OFFCURVE",
"438 575 CURVE SMOOTH",
"465 643 OFFCURVE",
"517 680 OFFCURVE",
"555 684 CURVE",
"553 717 LINE",
"505 709 OFFCURVE",
"449 670 OFFCURVE",
"418 610 CURVE",
"382 674 OFFCURVE",
"269 726 OFFCURVE",
"214 587 CURVE SMOOTH",
"191.144 528.907 OFFCURVE",
"169.195 457.21 OFFCURVE",
"147.289 379.682 CURVE",
"116.323 379.661 OFFCURVE",
"89.9973 379.176 OFFCURVE",
"74.9999 378 CURVE",
"76.9999 346 LINE",
"90.0399 347.043 OFFCURVE",
"111.922 347.542 OFFCURVE",
"138.017 347.657 CURVE",
"134 334 LINE SMOOTH",
"94.9999 201 OFFCURVE",
"44.9999 22 OFFCURVE",
"-9 -35 CURVE",
"-31 -60 OFFCURVE",
"-46 -57 OFFCURVE",
"-51 -55 CURVE",
"-59 -87 LINE",
"-43 -93 OFFCURVE",
"-11 -89 OFFCURVE",
"15.9999 -57 CURVE SMOOTH",
"87.9999 24 OFFCURVE",
"162 318 OFFCURVE",
"168 339 CURVE SMOOTH",
"170.743 347.622 LINE",
"227.112 347.298 OFFCURVE",
"292.648 345.735 OFFCURVE",
"332.294 344.142 CURVE",
"331 340 LINE SMOOTH",
"285 186 OFFCURVE",
"230 14 OFFCURVE",
"184 -35 CURVE",
"209 -57 LINE",
"258 -2 OFFCURVE",
"318 183 OFFCURVE",
"366 340 CURVE SMOOTH",
"366.632 342.086 LINE",
"401.909 339.294 OFFCURVE",
"458.046 336.928 OFFCURVE",
"513.102 336.835 CURVE",
"493 285 OFFCURVE",
"475 239 OFFCURVE",
"469 223 CURVE SMOOTH",
"398 50 OFFCURVE",
"383 11 OFFCURVE",
"399 -7 CURVE",
"403 -11 OFFCURVE",
"408 -16 OFFCURVE",
"423 -12 CURVE",
"435 19 LINE",
"434 22 OFFCURVE",
"428 26 OFFCURVE",
"447 77 CURVE SMOOTH",
"460 112 OFFCURVE",
"505.323 231.76 OFFCURVE",
"546.358 337.075 CURVE",
"588.525 337.787 OFFCURVE",
"627.278 340.131 OFFCURVE",
"652 345 CURVE"
);
},
{
closed = 1;
nodes = (
"293 696 OFFCURVE",
"382 616 OFFCURVE",
"400 569 CURVE",
"385.232 528.634 OFFCURVE",
"365.618 456.282 OFFCURVE",
"342.111 375.8 CURVE",
"305.345 377.409 OFFCURVE",
"239.318 379.075 OFFCURVE",
"180.559 379.55 CURVE",
"202.43 452.557 OFFCURVE",
"222.865 520.584 OFFCURVE",
"245 575 CURVE SMOOTH"
);
}
);
width = 632;
}
);
},
{
glyphname = f_t;
layers = (
{
layerId = "B2224B7D-3358-49DE-B033-78E3556D2134";
name = Regular;
paths = (
{
closed = 1;
nodes = (
"422 627 LINE SMOOTH",
"414 559 OFFCURVE",
"380 469 OFFCURVE",
"347 381 CURVE",
"296 381 OFFCURVE",
"243 375 OFFCURVE",
"193 373 CURVE",
"221 468 OFFCURVE",
"244 547 OFFCURVE",
"255 575 CURVE SMOOTH",
"291 664 OFFCURVE",
"337 695 OFFCURVE",
"372 679 CURVE",
"385 714 LINE",
"329 735 OFFCURVE",
"261 683 OFFCURVE",
"224 587 CURVE SMOOTH",
"209 552 OFFCURVE",
"186 468 OFFCURVE",
"158 372 CURVE",
"123 372 OFFCURVE",
"91 374 OFFCURVE",
"77 380 CURVE",
"65 350 LINE",
"83 343 OFFCURVE",
"114 341 OFFCURVE",
"148 340 CURVE",
"102 186 OFFCURVE",
"47 14 OFFCURVE",
"1 -35 CURVE",
"-21 -60 OFFCURVE",
"-36 -57 OFFCURVE",
"-41 -55 CURVE",
"-49 -87 LINE",
"-33 -93 OFFCURVE",
"-1 -89 OFFCURVE",
"26 -57 CURVE SMOOTH",
"75 -2 OFFCURVE",
"135 183 OFFCURVE",
"183 340 CURVE",
"238 342 OFFCURVE",
"280 348 OFFCURVE",
"335 349 CURVE",
"313 293 OFFCURVE",
"293 240 OFFCURVE",
"286 223 CURVE SMOOTH",
"215 50 OFFCURVE",
"200 11 OFFCURVE",
"216 -7 CURVE",
"220 -11 OFFCURVE",
"225 -16 OFFCURVE",
"240 -12 CURVE",
"252 19 LINE",
"251 22 OFFCURVE",
"245 26 OFFCURVE",
"264 77 CURVE SMOOTH",
"275 113 OFFCURVE",
"326 241 OFFCURVE",
"368 349 CURVE",
"400 348 OFFCURVE",
"427 346 OFFCURVE",
"445 344 CURVE",
"445 376 LINE",
"429 378 OFFCURVE",
"407 380 OFFCURVE",
"381 381 CURVE",
"416 471 OFFCURVE",
"449 556 OFFCURVE",
"456 626 CURVE SMOOTH"
);
}
);
width = 443;
}
);
},
{
glyphname = t_t;
layers = (
{
anchors = (
{
name = bottom;
position = "{145, 0}";
},
{
name = center;
position = "{145, 200}";
}
);
layerId = "B2224B7D-3358-49DE-B033-78E3556D2134";
name = Regular;
paths = (
{
closed = 1;
nodes = (
"442 665 LINE SMOOTH",
"455 639 OFFCURVE",
"450 588 OFFCURVE",
"425 510 CURVE SMOOTH",
"410 466 OFFCURVE",
"392 418 OFFCURVE",
"372 368 CURVE",
"339 366 OFFCURVE",
"244 360 OFFCURVE",
"221 359 CURVE",
"235 396 OFFCURVE",
"247 433 OFFCURVE",
"258 468 CURVE SMOOTH",
"291 574 OFFCURVE",
"295 638 OFFCURVE",
"273 673 CURVE",
"245 652 LINE",
"254 636 OFFCURVE",
"261 592 OFFCURVE",
"226 478 CURVE SMOOTH",
"214 440 OFFCURVE",
"199 399 OFFCURVE",
"183 358 CURVE",
"145 357 OFFCURVE",
"110 359 OFFCURVE",
"95 366 CURVE",
"82 334 LINE",
"110 324 OFFCURVE",
"151 324 OFFCURVE",
"170 324 CURVE",
"154 284 OFFCURVE",
"138 245 OFFCURVE",
"123 207 CURVE SMOOTH",
"86 116 OFFCURVE",
"54 38 OFFCURVE",
"49 0 CURVE",
"83 -6 LINE",
"89 29 OFFCURVE",
"120 105 OFFCURVE",
"156 194 CURVE SMOOTH",
"173 236 OFFCURVE",
"191 280 OFFCURVE",
"208 325 CURVE",
"237 326 OFFCURVE",
"330 332 OFFCURVE",
"358 333 CURVE",
"351 315 OFFCURVE",
"284 148 OFFCURVE",
"267 101 CURVE",
"255 58 OFFCURVE",
"241 5 OFFCURVE",
"272 -10 CURVE",
"288 21 LINE",
"289 21 OFFCURVE",
"289 21 OFFCURVE",
"289 21 CURVE",
"288 22 OFFCURVE",
"281 36 OFFCURVE",
"303 100 CURVE",
"320 145 OFFCURVE",
"387 312 OFFCURVE",
"396 334 CURVE",
"435 335 OFFCURVE",
"471 335 OFFCURVE",
"485 333 CURVE",
"485 367 LINE",
"473 369 OFFCURVE",
"443 369 OFFCURVE",
"410 369 CURVE",
"462 500 OFFCURVE",
"502 621 OFFCURVE",
"473 680 CURVE"
);
}
);
width = 503;
}
);
},
{
glyphname = zero;
layers = (
{
layerId = "B2224B7D-3358-49DE-B033-78E3556D2134";
name = Regular;
paths = (
{
closed = 1;
nodes = (
"85 -72 OFFCURVE",
"21 13 OFFCURVE",
"41 171 CURVE SMOOTH",
"49 258 OFFCURVE",
"82 367 OFFCURVE",
"123 443 CURVE SMOOTH",
"146 485 OFFCURVE",
"170 516 OFFCURVE",
"193 535 CURVE",
"199 529 LINE",
"224 560 OFFCURVE",
"263 623 OFFCURVE",
"304 613 CURVE SMOOTH",
"385 591 OFFCURVE",
"348 389 OFFCURVE",
"327 299 CURVE SMOOTH",
"305 210 OFFCURVE",
"262 83 OFFCURVE",
"200 32 CURVE SMOOTH"
);
},
{
closed = 1;
nodes = (
"124 377 OFFCURVE",
"112 340 OFFCURVE",
"99 300 CURVE SMOOTH",
"68 203 OFFCURVE",
"60 109 OFFCURVE",
"72 56 CURVE SMOOTH",
"81 9 OFFCURVE",
"112 -4 OFFCURVE",
"181 55 CURVE SMOOTH",
"236 104 OFFCURVE",
"276 219 OFFCURVE",
"297 309 CURVE SMOOTH",
"310 363 OFFCURVE",
"321 416 OFFCURVE",
"322 463 CURVE SMOOTH",
"327 514 OFFCURVE",
"320 577 OFFCURVE",
"303 581 CURVE SMOOTH",
"296 583 OFFCURVE",
"257 582 OFFCURVE",
"157 399 CURVE",
"140 409 LINE"
);
}
);
width = 364;
}
);
unicode = 0030;
},
{
glyphname = one;
layers = (
{
layerId = "B2224B7D-3358-49DE-B033-78E3556D2134";
name = Regular;
paths = (
{
closed = 1;
nodes = (
"159 468 LINE",
"221 528 OFFCURVE",
"271 579 OFFCURVE",
"278 573 CURVE",
"283 568 OFFCURVE",
"259 522 OFFCURVE",
"254 509 CURVE SMOOTH",
"201 372 OFFCURVE",
"118 133 OFFCURVE",
"94 18 CURVE",
"55 17 OFFCURVE",
"16 18 OFFCURVE",
"-24 24 CURVE",
"-28 -7 LINE",
"75 -21 OFFCURVE",
"200 -5 OFFCURVE",
"267 0 CURVE",
"264 31 LINE",
"216 27 OFFCURVE",
"185 23 OFFCURVE",
"126 20 CURVE",
"152 137 OFFCURVE",
"238 385 OFFCURVE",
"284 507 CURVE SMOOTH",
"296 539 OFFCURVE",
"322 600 OFFCURVE",
"312 611 CURVE SMOOTH",
"282 644 OFFCURVE",
"166 517 OFFCURVE",
"141 492 CURVE"
);
}
);
width = 365;
}
);
unicode = 0031;
},
{
glyphname = two;
layers = (
{
layerId = "B2224B7D-3358-49DE-B033-78E3556D2134";
name = Regular;
paths = (
{
closed = 1;
nodes = (
"78 -36 OFFCURVE",
"55 -35 OFFCURVE",
"35 -23 CURVE SMOOTH",
"-19 12 OFFCURVE",
"-38 57 OFFCURVE",
"16 81 CURVE SMOOTH",
"50 96 OFFCURVE",
"107 101 OFFCURVE",
"169 92 CURVE SMOOTH",
"169 92 OFFCURVE",
"170 92 OFFCURVE",
"170 92 CURVE",
"213 153 OFFCURVE",
"254 234 OFFCURVE",
"277 315 CURVE SMOOTH",
"305 388 OFFCURVE",
"329 502 OFFCURVE",
"286 554 CURVE SMOOTH",
"263 583 OFFCURVE",
"219 585 OFFCURVE",
"176 575 CURVE",
"176 575 OFFCURVE",
"166 607 OFFCURVE",
"166 607 CURVE",
"223 618 OFFCURVE",
"279 613 OFFCURVE",
"311 572 CURVE SMOOTH",
"366 503 OFFCURVE",
"336 371 OFFCURVE",
"311 300 CURVE SMOOTH",
"285 223 OFFCURVE",
"248 146 OFFCURVE",
"207 84 CURVE",
"264 73 OFFCURVE",
"315 54 OFFCURVE",
"356 27 CURVE",
"338 0 LINE",
"295 29 OFFCURVE",
"239 49 OFFCURVE",
"187 57 CURVE",
"169 32 OFFCURVE",
"134 -9 OFFCURVE",
"102 -24 CURVE SMOOTH"
);
},
{
closed = 1;
nodes = (
"113 63 OFFCURVE",
"74 69 OFFCURVE",
"34 54 CURVE SMOOTH",
"12 41 OFFCURVE",
"13 27 OFFCURVE",
"53 1 CURVE SMOOTH",
"79 -16 OFFCURVE",
"137 45 OFFCURVE",
"145 63 CURVE"
);
}
);
width = 428;
}
);
unicode = 0032;
},
{
glyphname = three;
layers = (
{
layerId = "B2224B7D-3358-49DE-B033-78E3556D2134";
name = Regular;
paths = (
{
closed = 1;
nodes = (
"36 -8 LINE",
"72 23 OFFCURVE",
"213 68 OFFCURVE",
"228 133 CURVE SMOOTH",
"237 168 OFFCURVE",
"214 184 OFFCURVE",
"173 211 CURVE SMOOTH",
"65 282 OFFCURVE",
"101 322 OFFCURVE",
"213 398 CURVE SMOOTH",
"255 425 OFFCURVE",
"296 460 OFFCURVE",
"309 483 CURVE SMOOTH",
"353 561 OFFCURVE",
"250 569 OFFCURVE",
"162 568 CURVE",
"163 600 LINE",
"276 600 OFFCURVE",
"386 585 OFFCURVE",
"341 476 CURVE SMOOTH",
"326 440 OFFCURVE",
"287 406 OFFCURVE",
"234 371 CURVE SMOOTH",
"208 353 OFFCURVE",
"181 336 OFFCURVE",
"163 319 CURVE SMOOTH",
"122 282 OFFCURVE",
"147 266 OFFCURVE",
"189 238 CURVE SMOOTH",
"237 205 OFFCURVE",
"273 180 OFFCURVE",
"260 122 CURVE SMOOTH",
"240 40 OFFCURVE",
"107 6 OFFCURVE",
"57 -33 CURVE"
);
}
);
width = 352;
}
);
unicode = 0033;
},
{
glyphname = four;
layers = (
{
layerId = "B2224B7D-3358-49DE-B033-78E3556D2134";
name = Regular;
paths = (
{
closed = 1;
nodes = (
"445 638 LINE",
"387 548 OFFCURVE",
"354 463 OFFCURVE",
"328 378 CURVE",
"271 377 OFFCURVE",
"240 373 OFFCURVE",
"134 363 CURVE",
"108 361 OFFCURVE",
"103 366 OFFCURVE",
"125 419 CURVE SMOOTH",
"139 456 OFFCURVE",
"167 511 OFFCURVE",
"203 583 CURVE",
"171 600 LINE",
"135 529 OFFCURVE",
"106 472 OFFCURVE",
"92 433 CURVE SMOOTH",
"67 369 OFFCURVE",
"65 325 OFFCURVE",
"137 329 CURVE SMOOTH",
"214 334 OFFCURVE",
"244 341 OFFCURVE",
"319 343 CURVE",
"282 211 OFFCURVE",
"275 140 OFFCURVE",
"229 0 CURVE",
"263 -14 LINE",
"290 68 OFFCURVE",
"306 142 OFFCURVE",
"323 213 CURVE SMOOTH",
"357 355 OFFCURVE",
"385 477 OFFCURVE",
"474 617 CURVE"
);
}
);
width = 416;
}
);
unicode = 0034;
},
{
glyphname = five;
layers = (
{
layerId = "B2224B7D-3358-49DE-B033-78E3556D2134";
name = Regular;
paths = (
{
closed = 1;
nodes = (
"19 -11 OFFCURVE",
"-29 40 OFFCURVE",
"13 133 CURVE",
"45 116 LINE",
"8 39 OFFCURVE",
"66 9 OFFCURVE",
"145 28 CURVE SMOOTH",
"241 51 OFFCURVE",
"346 119 OFFCURVE",
"360 221 CURVE SMOOTH",
"377 331 OFFCURVE",
"293 352 OFFCURVE",
"172 352 CURVE SMOOTH",
"65 352 OFFCURVE",
"99 383 OFFCURVE",
"131 502 CURVE SMOOTH",
"165 627 OFFCURVE",
"261 609 OFFCURVE",
"473 616 CURVE",
"479 582 LINE",
"288 575 OFFCURVE",
"196 596 OFFCURVE",
"164 489 CURVE SMOOTH",
"138 393 OFFCURVE",
"125 385 OFFCURVE",
"170 386 CURVE SMOOTH",
"310 389 OFFCURVE",
"414 349 OFFCURVE",
"393 212 CURVE SMOOTH",
"377 88 OFFCURVE",
"229 -11 OFFCURVE",
"104 -11 CURVE SMOOTH"
);
}
);
width = 458;
}
);
unicode = 0035;
},
{
glyphname = six;
layers = (
{
layerId = "B2224B7D-3358-49DE-B033-78E3556D2134";
name = Regular;
paths = (
{
closed = 1;
nodes = (
"108 -12 OFFCURVE",
"64 6 OFFCURVE",
"49 79 CURVE SMOOTH",
"41 120 OFFCURVE",
"44 173 OFFCURVE",
"56 232 CURVE",
"46 239 LINE",
"52 247 OFFCURVE",
"57 254 OFFCURVE",
"63 262 CURVE",
"69 284 OFFCURVE",
"76 306 OFFCURVE",
"84 329 CURVE SMOOTH",
"120 426 OFFCURVE",
"171 510 OFFCURVE",
"226 559 CURVE SMOOTH",
"275 601 OFFCURVE",
"326 617 OFFCURVE",
"372 600 CURVE",
"360 569 LINE",
"325 581 OFFCURVE",
"287 569 OFFCURVE",
"248 534 CURVE SMOOTH",
"197 489 OFFCURVE",
"151 413 OFFCURVE",
"118 323 CURVE",
"133 338 OFFCURVE",
"151 350 OFFCURVE",
"166 359 CURVE SMOOTH",
"242 400 OFFCURVE",
"307 370 OFFCURVE",
"322 292 CURVE SMOOTH",
"330 256 OFFCURVE",
"326 213 OFFCURVE",
"311 173 CURVE SMOOTH",
"280 92 OFFCURVE",
"215 -12 OFFCURVE",
"139 -12 CURVE SMOOTH"
);
},
{
closed = 1;
nodes = (
"188 9 OFFCURVE",
"251 106 OFFCURVE",
"278 183 CURVE SMOOTH",
"321 292 OFFCURVE",
"269 378 OFFCURVE",
"182 330 CURVE SMOOTH",
"154 315 OFFCURVE",
"124 287 OFFCURVE",
"95 248 CURVE",
"68 156 OFFCURVE",
"65 41 OFFCURVE",
"131 23 CURVE"
);
}
);
width = 386;
}
);
unicode = 0036;
},
{
glyphname = seven;
layers = (
{
layerId = "B2224B7D-3358-49DE-B033-78E3556D2134";
name = Regular;
paths = (
{
closed = 1;
nodes = (
"97 565 LINE",
"199 566 OFFCURVE",
"279 567 OFFCURVE",
"331 564 CURVE SMOOTH",
"409 559 OFFCURVE",
"411 553 OFFCURVE",
"389 525 CURVE SMOOTH",
"342 467 OFFCURVE",
"272 409 OFFCURVE",
"194 304 CURVE",
"169 307 OFFCURVE",
"142 308 OFFCURVE",
"102 295 CURVE",
"113 261 LINE",
"138 269 OFFCURVE",
"155 272 OFFCURVE",
"170 271 CURVE",
"119 198 OFFCURVE",
"69 109 OFFCURVE",
"31 0 CURVE",
"64 -10 LINE",
"103 101 OFFCURVE",
"156 193 OFFCURVE",
"210 266 CURVE",
"231 263 OFFCURVE",
"254 261 OFFCURVE",
"291 266 CURVE",
"284 301 LINE",
"263 298 OFFCURVE",
"248 298 OFFCURVE",
"234 299 CURVE",
"293 375 OFFCURVE",
"387 465 OFFCURVE",
"418 506 CURVE",
"462 569 OFFCURVE",
"430 590 OFFCURVE",
"338 598 CURVE SMOOTH",
"284 602 OFFCURVE",
"203 601 OFFCURVE",
"97 600 CURVE"
);
}
);
width = 390;
}
);
unicode = 0037;
},
{
glyphname = eight;
layers = (
{
layerId = "B2224B7D-3358-49DE-B033-78E3556D2134";
name = Regular;
paths = (
{
closed = 1;
nodes = (
"90 -22 OFFCURVE",
"-6 -24 OFFCURVE",
"-10 46 CURVE SMOOTH",
"-12 65 OFFCURVE",
"-6 87 OFFCURVE",
"7 113 CURVE SMOOTH",
"44 188 OFFCURVE",
"105 251 OFFCURVE",
"167 310 CURVE",
"138 347 OFFCURVE",
"108 405 OFFCURVE",
"120 463 CURVE SMOOTH",
"139 549 OFFCURVE",
"255 613 OFFCURVE",
"375 661 CURVE",
"389 629 LINE",
"243 570 OFFCURVE",
"167 513 OFFCURVE",
"155 453 CURVE SMOOTH",
"145 413 OFFCURVE",
"164 373 OFFCURVE",
"191 334 CURVE",
"275 417 OFFCURVE",
"355 497 OFFCURVE",
"374 609 CURVE",
"409 600 LINE",
"400 544 OFFCURVE",
"375 490 OFFCURVE",
"332 435 CURVE SMOOTH",
"298 388 OFFCURVE",
"254 345 OFFCURVE",
"210 303 CURVE",
"224 288 OFFCURVE",
"268 230 OFFCURVE",
"286 186 CURVE SMOOTH",
"301 143 OFFCURVE",
"298 106 OFFCURVE",
"276 71 CURVE SMOOTH",
"253 40 OFFCURVE",
"200 13 OFFCURVE",
"157 0 CURVE SMOOTH"
);
},
{
closed = 1;
nodes = (
"131 224 OFFCURVE",
"74 165 OFFCURVE",
"38 95 CURVE SMOOTH",
"-1 19 OFFCURVE",
"42 -1 OFFCURVE",
"145 33 CURVE SMOOTH",
"190 47 OFFCURVE",
"233 71 OFFCURVE",
"244 92 CURVE SMOOTH",
"292 162 OFFCURVE",
"210 252 OFFCURVE",
"189 281 CURVE"
);
}
);
width = 372;
}
);
unicode = 0038;
},
{
glyphname = nine;
layers = (
{
layerId = "B2224B7D-3358-49DE-B033-78E3556D2134";
name = Regular;
paths = (
{
closed = 1;
nodes = (
"168 0 LINE",
"179 97 OFFCURVE",
"237 194 OFFCURVE",
"293 287 CURVE SMOOTH",
"334 356 OFFCURVE",
"374 423 OFFCURVE",
"394 487 CURVE",
"379 461 OFFCURVE",
"359 423 OFFCURVE",
"310 383 CURVE SMOOTH",
"234 325 OFFCURVE",
"170 319 OFFCURVE",
"118 371 CURVE SMOOTH",
"88 404 OFFCURVE",
"83 442 OFFCURVE",
"105 480 CURVE SMOOTH",
"127 518 OFFCURVE",
"178 556 OFFCURVE",
"243 583 CURVE SMOOTH",
"292 604 OFFCURVE",
"358 621 OFFCURVE",
"398 610 CURVE",
"390 579 LINE",
"365 586 OFFCURVE",
"311 576 OFFCURVE",
"257 554 CURVE SMOOTH",
"198 529 OFFCURVE",
"151 495 OFFCURVE",
"133 462 CURVE SMOOTH",
"118 437 OFFCURVE",
"120 415 OFFCURVE",
"141 393 CURVE SMOOTH",
"178 354 OFFCURVE",
"225 359 OFFCURVE",
"289 409 CURVE SMOOTH",
"361 465 OFFCURVE",
"393 543 OFFCURVE",
"404 588 CURVE SMOOTH",
"409 608 OFFCURVE",
"442 611 OFFCURVE",
"442 586 CURVE SMOOTH",
"442 478 OFFCURVE",
"379 369 OFFCURVE",
"321 270 CURVE SMOOTH",
"266 179 OFFCURVE",
"210 85 OFFCURVE",
"200 -5 CURVE"
);
}
);
width = 421;
}
);
unicode = 0039;
},
{
glyphname = asterisk;
layers = (
{
layerId = "B2224B7D-3358-49DE-B033-78E3556D2134";
name = Regular;
paths = (
{
closed = 1;
nodes = (
"374 680 LINE",
"346 657 OFFCURVE",
"320 638 OFFCURVE",
"294 620 CURVE",
"298 627 OFFCURVE",
"325 678 OFFCURVE",
"335 698 CURVE",
"306 712 LINE",
"297 692 OFFCURVE",
"261 625 OFFCURVE",
"254 611 CURVE",
"240 631 OFFCURVE",
"226 651 OFFCURVE",
"209 669 CURVE",
"185 648 LINE",
"202 629 OFFCURVE",
"217 609 OFFCURVE",
"230 589 CURVE",
"201 590 OFFCURVE",
"172 591 OFFCURVE",
"143 592 CURVE",
"143 560 LINE",
"163 559 OFFCURVE",
"185 559 OFFCURVE",
"206 558 CURVE",
"174 533 OFFCURVE",
"143 504 OFFCURVE",
"113 466 CURVE",
"138 446 LINE",
"163 478 OFFCURVE",
"189 503 OFFCURVE",
"215 524 CURVE",
"204 491 OFFCURVE",
"195 457 OFFCURVE",
"192 418 CURVE",
"224 416 LINE",
"228 463 OFFCURVE",
"240 504 OFFCURVE",
"257 544 CURVE",
"262 535 OFFCURVE",
"300 465 OFFCURVE",
"318 439 CURVE",
"344 456 LINE",
"327 483 OFFCURVE",
"294 544 OFFCURVE",
"289 551 CURVE",
"319 548 OFFCURVE",
"349 543 OFFCURVE",
"377 536 CURVE",
"385 567 LINE",
"356 574 OFFCURVE",
"326 579 OFFCURVE",
"296 583 CURVE",
"327 605 OFFCURVE",
"359 626 OFFCURVE",
"395 655 CURVE"
);
}
);
width = 321;
}
);
unicode = 002A;
},
{
glyphname = backslash;
layers = (
{
layerId = "B2224B7D-3358-49DE-B033-78E3556D2134";
name = Regular;
paths = (
{
closed = 1;
nodes = (
"191 -14 OFFCURVE",
"186 102 OFFCURVE",
"181 219 CURVE SMOOTH",
"172 374 OFFCURVE",
"166 519 OFFCURVE",
"131 681 CURVE",
"165 690 LINE",
"202 525 OFFCURVE",
"209 377 OFFCURVE",
"215 220 CURVE SMOOTH",
"220 107 OFFCURVE",
"225 -9 OFFCURVE",
"243 -137 CURVE",
"207 -142 LINE"
);
}
);
width = 344;
}
);
unicode = 005C;
},
{
glyphname = bullet;
layers = (
{
layerId = "B2224B7D-3358-49DE-B033-78E3556D2134";
name = Regular;
paths = (
{
closed = 1;
nodes = (
"139 239 OFFCURVE",
"139 239 OFFCURVE",
"137 239 CURVE SMOOTH",
"131 241 OFFCURVE",
"119 247 OFFCURVE",
"116 264 CURVE SMOOTH",
"116 268 OFFCURVE",
"114 272 OFFCURVE",
"116 280 CURVE SMOOTH",
"116 280 OFFCURVE",
"116 281 OFFCURVE",
"116 281 CURVE",
"111 289 OFFCURVE",
"111 295 OFFCURVE",
"111 299 CURVE SMOOTH",
"111 301 OFFCURVE",
"111 302 OFFCURVE",
"111 304 CURVE",
"111 309 OFFCURVE",
"110 313 OFFCURVE",
"111 317 CURVE SMOOTH",
"111 325 OFFCURVE",
"113 331 OFFCURVE",
"117 337 CURVE",
"119 341 OFFCURVE",
"121 344 OFFCURVE",
"124 350 CURVE SMOOTH",
"125 353 OFFCURVE",
"127 354 OFFCURVE",
"128 357 CURVE",
"132 367 OFFCURVE",
"137 376 OFFCURVE",
"145 383 CURVE",
"146 383 OFFCURVE",
"146 387 OFFCURVE",
"148 388 CURVE SMOOTH",
"152 393 OFFCURVE",
"156 397 OFFCURVE",
"159 400 CURVE SMOOTH",
"172 409 OFFCURVE",
"185 405 OFFCURVE",
"189 403 CURVE SMOOTH",
"195 400 OFFCURVE",
"201 396 OFFCURVE",
"203 390 CURVE",
"212 385 OFFCURVE",
"223 377 OFFCURVE",
"233 366 CURVE",
"245 357 OFFCURVE",
"251 350 OFFCURVE",
"254 338 CURVE SMOOTH",
"254 335 OFFCURVE",
"256 333 OFFCURVE",
"256 330 CURVE",
"256 328 OFFCURVE",
"256 327 OFFCURVE",
"256 325 CURVE SMOOTH",
"258 312 OFFCURVE",
"256 297 OFFCURVE",
"248 287 CURVE SMOOTH",
"246 284 OFFCURVE",
"245 283 OFFCURVE",
"244 281 CURVE",
"243 277 OFFCURVE",
"241 274 OFFCURVE",
"239 271 CURVE SMOOTH",
"235 264 OFFCURVE",
"228 258 OFFCURVE",
"218 254 CURVE",
"210 251 OFFCURVE",
"203 250 OFFCURVE",
"195 251 CURVE",
"189 251 OFFCURVE",
"184 251 OFFCURVE",
"178 251 CURVE",
"172 251 OFFCURVE",
"165 251 OFFCURVE",
"165 251 CURVE",
"158 241 OFFCURVE",
"149 239 OFFCURVE",
"143 239 CURVE SMOOTH"
);
}
);
width = 318;
}
);
unicode = 2022;
},
{
glyphname = comma;
layers = (
{
layerId = "B2224B7D-3358-49DE-B033-78E3556D2134";
name = Regular;
paths = (
{
closed = 1;
nodes = (
"-53 -128 LINE",
"-38 -105 OFFCURVE",
"-23 -80 OFFCURVE",
"-15 -60 CURVE SMOOTH",
"-3 -29 OFFCURVE",
"-3 -17 OFFCURVE",
"-3 -13 CURVE",
"-4 -12 OFFCURVE",
"-6 -12 OFFCURVE",
"-10 -14 CURVE",
"-18 30 LINE",
"14 35 OFFCURVE",
"28 21 OFFCURVE",
"34 11 CURVE SMOOTH",
"45 -8 OFFCURVE",
"43 -35 OFFCURVE",
"26 -74 CURVE SMOOTH",
"16 -97 OFFCURVE",
"0 -127 OFFCURVE",
"-18 -152 CURVE"
);
}
);
width = 170;
}
);
unicode = 002C;
},
{
glyphname = exclam;
layers = (
{
layerId = "B2224B7D-3358-49DE-B033-78E3556D2134";
name = Regular;
paths = (
{
closed = 1;
nodes = (
"69 154 LINE",
"96 262 OFFCURVE",
"207 446 OFFCURVE",
"245 548 CURVE SMOOTH",
"264 599 OFFCURVE",
"273 635 OFFCURVE",
"257 652 CURVE SMOOTH",
"284 676 LINE SMOOTH",
"306 650 OFFCURVE",
"303 601 OFFCURVE",
"278 535 CURVE SMOOTH",
"243 440 OFFCURVE",
"130 248 OFFCURVE",
"104 146 CURVE"
);
},
{
closed = 1;
nodes = (
"49 -11 OFFCURVE",
"42 -10 OFFCURVE",
"33 -3 CURVE",
"23 -7 LINE",
"18 4 OFFCURVE",
"13 13 OFFCURVE",
"12 18 CURVE SMOOTH",
"11 23 OFFCURVE",
"9 26 OFFCURVE",
"9 27 CURVE SMOOTH",
"5 41 OFFCURVE",
"12 51 OFFCURVE",
"19 55 CURVE SMOOTH",
"22 57 OFFCURVE",
"37 65 OFFCURVE",
"52 48 CURVE SMOOTH",
"52 48 OFFCURVE",
"52 48 OFFCURVE",
"53 47 CURVE",
"73 52 LINE",
"76 40 OFFCURVE",
"78 31 OFFCURVE",
"80 24 CURVE SMOOTH",
"81 4 OFFCURVE",
"73 -4 OFFCURVE",
"66 -8 CURVE SMOOTH",
"63 -10 OFFCURVE",
"59 -11 OFFCURVE",
"54 -11 CURVE SMOOTH"
);
}
);
width = 244;
}
);
unicode = 0021;
},
{
glyphname = exclamdown;
layers = (
{
layerId = "B2224B7D-3358-49DE-B033-78E3556D2134";
name = Regular;
paths = (
{
closed = 1;
nodes = (
"-32 -122 LINE",
"-5 -14 OFFCURVE",
"106 170 OFFCURVE",
"144 272 CURVE SMOOTH",
"163 323 OFFCURVE",
"172 359 OFFCURVE",
"156 376 CURVE SMOOTH",
"183 400 LINE SMOOTH",
"205 374 OFFCURVE",
"202 325 OFFCURVE",
"177 259 CURVE SMOOTH",
"142 164 OFFCURVE",
"29 -28 OFFCURVE",
"3 -130 CURVE"
);
},
{
closed = 1;
nodes = (
"211 535 OFFCURVE",
"218 534 OFFCURVE",
"227 527 CURVE",
"237 531 LINE",
"242 520 OFFCURVE",
"247 511 OFFCURVE",
"248 506 CURVE SMOOTH",
"249 501 OFFCURVE",
"251 498 OFFCURVE",
"251 497 CURVE SMOOTH",
"255 483 OFFCURVE",
"248 473 OFFCURVE",
"241 469 CURVE SMOOTH",
"238 467 OFFCURVE",
"223 459 OFFCURVE",
"208 476 CURVE SMOOTH",
"208 476 OFFCURVE",
"208 476 OFFCURVE",
"207 477 CURVE",
"187 472 LINE",
"184 484 OFFCURVE",
"182 493 OFFCURVE",
"180 500 CURVE SMOOTH",
"179 520 OFFCURVE",
"187 528 OFFCURVE",
"194 532 CURVE SMOOTH",
"197 534 OFFCURVE",
"201 535 OFFCURVE",
"206 535 CURVE SMOOTH"
);
}
);
width = 244;
}
);
unicode = 00A1;
},
{
glyphname = numbersign;
layers = (
{
layerId = "B2224B7D-3358-49DE-B033-78E3556D2134";
name = Regular;
paths = (
{
closed = 1;
nodes = (
"65 1 LINE",
"95 79 OFFCURVE",
"129 156 OFFCURVE",
"162 231 CURVE SMOOTH",
"213 342 OFFCURVE",
"265 458 OFFCURVE",
"301 576 CURVE",
"332 566 LINE",
"296 446 OFFCURVE",
"243 330 OFFCURVE",
"192 217 CURVE SMOOTH",
"159 143 OFFCURVE",
"125 66 OFFCURVE",
"96 -11 CURVE"
);
},
{
closed = 1;
nodes = (
"218 0 LINE",
"308 192 OFFCURVE",
"403 398 OFFCURVE",
"465 608 CURVE",
"496 600 LINE",
"434 386 OFFCURVE",
"338 179 OFFCURVE",
"247 -14 CURVE"
);
},
{
closed = 1;
nodes = (
"162 352 OFFCURVE",
"132 353 OFFCURVE",
"102 355 CURVE",
"104 386 LINE",
"198 379 OFFCURVE",
"289 385 OFFCURVE",
"385 392 CURVE SMOOTH",
"430 395 OFFCURVE",
"476 398 OFFCURVE",
"522 400 CURVE",
"523 369 LINE",
"477 367 OFFCURVE",
"432 364 OFFCURVE",
"387 361 CURVE SMOOTH",
"323 356 OFFCURVE",
"258 352 OFFCURVE",
"192 352 CURVE SMOOTH"
);
},
{
closed = 1;
nodes = (
"56 210 OFFCURVE",
"52 210 OFFCURVE",
"48 210 CURVE",
"48 242 LINE",
"131 241 OFFCURVE",
"216 248 OFFCURVE",
"299 254 CURVE SMOOTH",
"355 259 OFFCURVE",
"414 263 OFFCURVE",
"471 265 CURVE",
"472 234 LINE",
"415 232 OFFCURVE",
"357 227 OFFCURVE",
"301 223 CURVE SMOOTH",
"222 217 OFFCURVE",
"140 210 OFFCURVE",
"60 210 CURVE SMOOTH"
);
}
);
width = 527;
}
);
unicode = 0023;
},
{
glyphname = period;
layers = (
{
layerId = "B2224B7D-3358-49DE-B033-78E3556D2134";
name = Regular;
paths = (
{
closed = 1;
nodes = (
"5 -11 OFFCURVE",
"-2 -10 OFFCURVE",
"-11 -3 CURVE",
"-21 -7 LINE",
"-26 4 OFFCURVE",
"-31 13 OFFCURVE",
"-32 18 CURVE SMOOTH",
"-33 23 OFFCURVE",
"-35 26 OFFCURVE",
"-35 27 CURVE SMOOTH",
"-39 41 OFFCURVE",
"-32 51 OFFCURVE",
"-25 55 CURVE SMOOTH",
"-22 57 OFFCURVE",
"-7 65 OFFCURVE",
"8 48 CURVE SMOOTH",
"8 48 OFFCURVE",
"8 48 OFFCURVE",
"9 47 CURVE",
"29 52 LINE",
"32 40 OFFCURVE",
"34 31 OFFCURVE",
"36 24 CURVE SMOOTH",
"37 4 OFFCURVE",
"29 -4 OFFCURVE",
"22 -8 CURVE SMOOTH",
"19 -10 OFFCURVE",
"15 -11 OFFCURVE",
"10 -11 CURVE SMOOTH"
);
}
);
width = 137;
}
);
unicode = 002E;
},
{
glyphname = periodcentered;
layers = (
{
layerId = "B2224B7D-3358-49DE-B033-78E3556D2134";
name = Regular;
paths = (
{
closed = 1;
nodes = (
"52 197 OFFCURVE",
"51 198 OFFCURVE",
"50 198 CURVE SMOOTH",
"46 199 OFFCURVE",
"38 202 OFFCURVE",
"36 213 CURVE SMOOTH",
"36 216 OFFCURVE",
"36 220 OFFCURVE",
"36 224 CURVE SMOOTH",
"36 225 OFFCURVE",
"36 225 OFFCURVE",
"36 226 CURVE",
"33 230 OFFCURVE",
"33 235 OFFCURVE",
"33 237 CURVE SMOOTH",
"33 239 OFFCURVE",
"33 240 OFFCURVE",
"34 241 CURVE",
"33 243 OFFCURVE",
"32 246 OFFCURVE",
"33 249 CURVE SMOOTH",
"33 254 OFFCURVE",
"34 259 OFFCURVE",
"37 263 CURVE",
"38 265 OFFCURVE",
"39 268 OFFCURVE",
"41 270 CURVE SMOOTH",
"42 272 OFFCURVE",
"43 274 OFFCURVE",
"44 276 CURVE",
"47 282 OFFCURVE",
"50 288 OFFCURVE",
"55 292 CURVE",
"56 294 OFFCURVE",
"57 295 OFFCURVE",
"57 296 CURVE SMOOTH",
"60 300 OFFCURVE",
"63 302 OFFCURVE",
"65 304 CURVE SMOOTH",
"74 310 OFFCURVE",
"82 308 OFFCURVE",
"85 306 CURVE SMOOTH",
"89 304 OFFCURVE",
"92 301 OFFCURVE",
"94 298 CURVE",
"100 294 OFFCURVE",
"107 289 OFFCURVE",
"114 281 CURVE",
"122 277 OFFCURVE",
"126 271 OFFCURVE",
"128 263 CURVE SMOOTH",
"128 261 OFFCURVE",
"129 259 OFFCURVE",
"129 258 CURVE",
"129 257 OFFCURVE",
"129 255 OFFCURVE",
"129 254 CURVE SMOOTH",
"131 245 OFFCURVE",
"129 236 OFFCURVE",
"124 229 CURVE SMOOTH",
"123 228 OFFCURVE",
"122 226 OFFCURVE",
"121 225 CURVE",
"120 223 OFFCURVE",
"119 221 OFFCURVE",
"118 219 CURVE SMOOTH",
"115 215 OFFCURVE",
"111 210 OFFCURVE",
"104 208 CURVE",
"100 206 OFFCURVE",
"94 205 OFFCURVE",
"88 205 CURVE",
"85 205 OFFCURVE",
"81 205 OFFCURVE",
"77 206 CURVE",
"74 205 OFFCURVE",
"72 205 OFFCURVE",
"70 205 CURVE",
"70 205 OFFCURVE",
"70 205 OFFCURVE",
"70 205 CURVE",
"64 199 OFFCURVE",
"58 197 OFFCURVE",
"54 197 CURVE SMOOTH"
);
}
);
width = 180;
}
);
unicode = 00B7;
},
{
glyphname = question;
layers = (
{
layerId = "B2224B7D-3358-49DE-B033-78E3556D2134";
name = Regular;
paths = (
{
closed = 1;
nodes = (
"127 158 LINE",
"150 265 OFFCURVE",
"230 340 OFFCURVE",
"307 412 CURVE SMOOTH",
"375 477 OFFCURVE",
"435 532 OFFCURVE",
"428 591 CURVE SMOOTH",
"419 661 OFFCURVE",
"377 675 OFFCURVE",
"344 675 CURVE SMOOTH",
"283 675 OFFCURVE",
"219 628 OFFCURVE",
"213 579 CURVE",
"175 584 LINE",
"180 618 OFFCURVE",
"201 650 OFFCURVE",
"236 676 CURVE SMOOTH",
"268 699 OFFCURVE",
"308 712 OFFCURVE",
"344 712 CURVE SMOOTH",
"375 712 OFFCURVE",
"402 703 OFFCURVE",
"422 685 CURVE SMOOTH",
"446 665 OFFCURVE",
"460 635 OFFCURVE",
"466 596 CURVE SMOOTH",
"475 518 OFFCURVE",
"406 453 OFFCURVE",
"332 384 CURVE SMOOTH",
"261 317 OFFCURVE",
"180 241 OFFCURVE",
"163 146 CURVE"
);
},
{
closed = 1;
nodes = (
"115 -11 OFFCURVE",
"108 -10 OFFCURVE",
"99 -3 CURVE",
"89 -7 LINE",
"84 4 OFFCURVE",
"79 13 OFFCURVE",
"78 18 CURVE SMOOTH",
"77 23 OFFCURVE",
"75 26 OFFCURVE",
"75 27 CURVE SMOOTH",
"71 41 OFFCURVE",
"78 51 OFFCURVE",
"85 55 CURVE SMOOTH",
"88 57 OFFCURVE",
"103 65 OFFCURVE",
"118 48 CURVE SMOOTH",
"119 47 LINE",
"139 52 LINE",
"146 24 LINE SMOOTH",
"147 4 OFFCURVE",
"139 -4 OFFCURVE",
"132 -8 CURVE SMOOTH",
"129 -10 OFFCURVE",
"125 -11 OFFCURVE",
"120 -11 CURVE SMOOTH"
);
}
);
width = 402;
}
);
unicode = 003F;
},
{
glyphname = questiondown;
layers = (
{
layerId = "B2224B7D-3358-49DE-B033-78E3556D2134";
name = Regular;
paths = (
{
closed = 1;
nodes = (
"295 388 LINE",
"272 281 OFFCURVE",
"192 206 OFFCURVE",
"115 134 CURVE SMOOTH",
"47 69 OFFCURVE",
"-13 14 OFFCURVE",
"-6 -45 CURVE SMOOTH",
"3 -115 OFFCURVE",
"45 -129 OFFCURVE",
"78 -129 CURVE SMOOTH",
"139 -129 OFFCURVE",
"203 -82 OFFCURVE",
"209 -33 CURVE",
"247 -38 LINE",
"242 -72 OFFCURVE",
"221 -104 OFFCURVE",
"186 -130 CURVE SMOOTH",
"154 -153 OFFCURVE",
"114 -166 OFFCURVE",
"78 -166 CURVE SMOOTH",
"47 -166 OFFCURVE",
"20 -157 OFFCURVE",
"0 -139 CURVE SMOOTH",
"-24 -119 OFFCURVE",
"-38 -89 OFFCURVE",
"-44 -50 CURVE SMOOTH",
"-53 28 OFFCURVE",
"16 93 OFFCURVE",
"90 162 CURVE SMOOTH",
"161 229 OFFCURVE",
"242 305 OFFCURVE",
"259 400 CURVE"
);
},
{
closed = 1;
nodes = (
"307 557 OFFCURVE",
"314 556 OFFCURVE",
"323 549 CURVE",
"333 553 LINE",
"338 542 OFFCURVE",
"343 533 OFFCURVE",
"344 528 CURVE SMOOTH",
"345 523 OFFCURVE",
"347 520 OFFCURVE",
"347 519 CURVE SMOOTH",
"351 505 OFFCURVE",
"344 495 OFFCURVE",
"337 491 CURVE SMOOTH",
"334 489 OFFCURVE",
"319 481 OFFCURVE",
"304 498 CURVE SMOOTH",
"303 499 LINE",
"283 494 LINE",
"276 522 LINE SMOOTH",
"275 542 OFFCURVE",
"283 550 OFFCURVE",
"290 554 CURVE SMOOTH",
"293 556 OFFCURVE",
"297 557 OFFCURVE",
"302 557 CURVE SMOOTH"
);
}
);
width = 402;
}
);
unicode = 00BF;
},
{
glyphname = quotedbl;
layers = (
{
layerId = "B2224B7D-3358-49DE-B033-78E3556D2134";
name = Regular;
paths = (
{
closed = 1;
nodes = (
"320 645 OFFCURVE",
"349 635 OFFCURVE",
"353 633 CURVE",
"351 619 OFFCURVE",
"339 574 OFFCURVE",
"324 534 CURVE SMOOTH",
"313 511 OFFCURVE",
"302 480 OFFCURVE",
"284 455 CURVE",
"248 479 LINE",
"263 502 OFFCURVE",
"274 529 OFFCURVE",
"282 549 CURVE SMOOTH",
"294 579 OFFCURVE",
"314 644 OFFCURVE",
"313 648 CURVE"
);
},
{
closed = 1;
nodes = (
"189 643 OFFCURVE",
"217 633 OFFCURVE",
"222 631 CURVE",
"220 617 OFFCURVE",
"208 572 OFFCURVE",
"192 532 CURVE SMOOTH",
"181 508 OFFCURVE",
"170 477 OFFCURVE",
"153 453 CURVE",
"117 477 LINE",
"132 500 OFFCURVE",
"142 527 OFFCURVE",
"151 547 CURVE SMOOTH",
"163 577 OFFCURVE",
"182 642 OFFCURVE",
"181 646 CURVE"
);
}
);
width = 290;
}
);
unicode = 0022;
},
{
glyphname = quotesingle;
layers = (
{
layerId = "B2224B7D-3358-49DE-B033-78E3556D2134";
name = Regular;
paths = (
{
closed = 1;
nodes = (
"121 472 OFFCURVE",
"148 535 OFFCURVE",
"158 565 CURVE SMOOTH",
"164 586 OFFCURVE",
"173 614 OFFCURVE",
"177 641 CURVE",
"220 636 LINE",
"217 606 OFFCURVE",
"206 575 OFFCURVE",
"199 550 CURVE SMOOTH",
"185 509 OFFCURVE",
"166 467 OFFCURVE",
"158 455 CURVE",
"154 457 OFFCURVE",
"125 467 OFFCURVE",
"118 470 CURVE"
);
}
);
width = 138;
}
);
unicode = 0027;
},
{
glyphname = semicolon;
layers = (
{
layerId = "B2224B7D-3358-49DE-B033-78E3556D2134";
name = Regular;
paths = (
{
closed = 1;
nodes = (
"-32 -128 LINE",
"-16 -106 OFFCURVE",
"-1 -81 OFFCURVE",
"7 -60 CURVE SMOOTH",
"19 -30 OFFCURVE",
"19 -18 OFFCURVE",
"19 -14 CURVE",
"18 -13 OFFCURVE",
"16 -13 OFFCURVE",
"12 -15 CURVE",
"4 29 LINE",
"36 34 OFFCURVE",
"50 20 OFFCURVE",
"56 10 CURVE SMOOTH",
"67 -9 OFFCURVE",
"65 -36 OFFCURVE",
"47 -75 CURVE SMOOTH",
"38 -97 OFFCURVE",
"22 -128 OFFCURVE",
"4 -153 CURVE"
);
},
{
closed = 1;
nodes = (
"128 248 OFFCURVE",
"122 252 OFFCURVE",
"116 261 CURVE",
"105 261 LINE",
"104 273 OFFCURVE",
"103 283 OFFCURVE",
"104 288 CURVE SMOOTH",
"104 293 OFFCURVE",
"103 297 OFFCURVE",
"104 298 CURVE SMOOTH",
"105 312 OFFCURVE",
"115 319 OFFCURVE",
"123 321 CURVE SMOOTH",
"126 322 OFFCURVE",
"143 324 OFFCURVE",
"151 303 CURVE SMOOTH",
"151 303 OFFCURVE",
"151 303 OFFCURVE",
"152 302 CURVE",
"172 299 LINE",
"171 287 OFFCURVE",
"170 278 OFFCURVE",
"169 271 CURVE SMOOTH",
"164 252 OFFCURVE",
"153 247 OFFCURVE",
"145 245 CURVE SMOOTH",
"142 245 OFFCURVE",
"138 245 OFFCURVE",
"133 247 CURVE SMOOTH"
);
}
);
width = 236;
}
);
unicode = 003B;
},
{
glyphname = slash;
layers = (
{
layerId = "B2224B7D-3358-49DE-B033-78E3556D2134";
name = Regular;
paths = (
{
closed = 1;
nodes = (
"-89 -106 LINE",
"49 137 OFFCURVE",
"164 343 OFFCURVE",
"304 578 CURVE SMOOTH",
"318 602 OFFCURVE",
"362 674 OFFCURVE",
"378 700 CURVE",
"401 680 LINE",
"386 655 OFFCURVE",
"343 581 OFFCURVE",
"329 557 CURVE SMOOTH",
"188 325 OFFCURVE",
"73 118 OFFCURVE",
"-63 -123 CURVE"
);
}
);
width = 258;
}
);
unicode = 002F;
},
{
glyphname = underscore;
layers = (
{
layerId = "B2224B7D-3358-49DE-B033-78E3556D2134";
name = Regular;
paths = (
{
closed = 1;
nodes = (
"-104 -85 LINE",
"-72 -85 OFFCURVE",
"21 -84 OFFCURVE",
"52 -84 CURVE SMOOTH",
"83 -84 OFFCURVE",
"163 -85 OFFCURVE",
"195 -85 CURVE",
"215 -33 LINE",
"183 -33 OFFCURVE",
"104 -32 OFFCURVE",
"72 -32 CURVE SMOOTH",
"40 -32 OFFCURVE",
"-52 -33 OFFCURVE",
"-84 -33 CURVE"
);
}
);
width = 300;
}
);
unicode = 005F;
},
{
glyphname = braceleft;
layers = (
{
layerId = "B2224B7D-3358-49DE-B033-78E3556D2134";
name = Regular;
paths = (
{
closed = 1;
nodes = (
"8 -136 OFFCURVE",
"-14 -62 OFFCURVE",
"25 39 CURVE SMOOTH",
"31 56 OFFCURVE",
"106 219 OFFCURVE",
"111 250 CURVE SMOOTH",
"117 275 OFFCURVE",
"43 289 OFFCURVE",
"64 331 CURVE SMOOTH",
"84 382 OFFCURVE",
"150 333 OFFCURVE",
"169 403 CURVE SMOOTH",
"189 492 OFFCURVE",
"216 632 OFFCURVE",
"290 696 CURVE SMOOTH",
"313 717 OFFCURVE",
"341 731 OFFCURVE",
"372 732 CURVE",
"373 700 LINE",
"373 700 OFFCURVE",
"372 700 OFFCURVE",
"372 700 CURVE SMOOTH",
"252 690 OFFCURVE",
"213 447 OFFCURVE",
"199 394 CURVE SMOOTH",
"184 339 OFFCURVE",
"146 330 OFFCURVE",
"118 329 CURVE SMOOTH",
"94 327 OFFCURVE",
"82 320 OFFCURVE",
"109 303 CURVE SMOOTH",
"125 292 OFFCURVE",
"149 276 OFFCURVE",
"142 245 CURVE SMOOTH",
"137 210 OFFCURVE",
"61 45 OFFCURVE",
"56 28 CURVE SMOOTH",
"24 -51 OFFCURVE",
"30 -102 OFFCURVE",
"101 -96 CURVE",
"105 -128 LINE"
);
}
);
width = 257;
}
);
unicode = 007B;
},
{
glyphname = braceright;
layers = (
{
layerId = "B2224B7D-3358-49DE-B033-78E3556D2134";
name = Regular;
paths = (
{
closed = 1;
nodes = (
"26 -121 OFFCURVE",
"-22 -137 OFFCURVE",
"-96 -136 CURVE",
"-95 -104 LINE",
"12 -107 OFFCURVE",
"37 -41 OFFCURVE",
"57 -8 CURVE SMOOTH",
"93 51 OFFCURVE",
"158 225 OFFCURVE",
"155 279 CURVE SMOOTH",
"151 332 OFFCURVE",
"227 342 OFFCURVE",
"226 352 CURVE SMOOTH",
"224 364 OFFCURVE",
"183 360 OFFCURVE",
"177 384 CURVE SMOOTH",
"166 421 OFFCURVE",
"208 460 OFFCURVE",
"221 481 CURVE SMOOTH",
"263 539 OFFCURVE",
"315 623 OFFCURVE",
"295 668 CURVE SMOOTH",
"286 687 OFFCURVE",
"261 697 OFFCURVE",
"221 700 CURVE",
"222 732 LINE",
"275 729 OFFCURVE",
"309 713 OFFCURVE",
"324 682 CURVE SMOOTH",
"353 621 OFFCURVE",
"295 528 OFFCURVE",
"248 462 CURVE SMOOTH",
"243 454 OFFCURVE",
"202 410 OFFCURVE",
"208 394 CURVE SMOOTH",
"212 381 OFFCURVE",
"270 377 OFFCURVE",
"271 354 CURVE SMOOTH",
"273 324 OFFCURVE",
"184 325 OFFCURVE",
"187 281 CURVE SMOOTH",
"191 221 OFFCURVE",
"116 28 OFFCURVE",
"83 -27 CURVE SMOOTH"
);
}
);
width = 282;
}
);
unicode = 007D;
},
{
glyphname = bracketleft;
layers = (
{
layerId = "B2224B7D-3358-49DE-B033-78E3556D2134";
name = Regular;
paths = (
{
closed = 1;
nodes = (
"70 -115 OFFCURVE",
"-22 -120 OFFCURVE",
"-28 -76 CURVE SMOOTH",
"-29 -71 OFFCURVE",
"-29 -57 OFFCURVE",
"11 66 CURVE SMOOTH",
"55 200 OFFCURVE",
"146 463 OFFCURVE",
"207 599 CURVE SMOOTH",
"257 712 OFFCURVE",
"275 725 OFFCURVE",
"287 729 CURVE SMOOTH",
"332 743 OFFCURVE",
"364 728 OFFCURVE",
"400 732 CURVE",
"403 700 LINE",
"368 696 OFFCURVE",
"334 709 OFFCURVE",
"298 699 CURVE SMOOTH",
"293 698 OFFCURVE",
"278 680 OFFCURVE",
"232 578 CURVE SMOOTH",
"169 433 OFFCURVE",
"94 213 OFFCURVE",
"42 58 CURVE SMOOTH",
"26 11 OFFCURVE",
"5 -62 OFFCURVE",
"9 -68 CURVE SMOOTH",
"18 -82 OFFCURVE",
"66 -85 OFFCURVE",
"96 -74 CURVE",
"106 -104 LINE"
);
}
);
width = 254;
}
);
unicode = 005B;
},
{
glyphname = bracketright;
layers = (
{
layerId = "B2224B7D-3358-49DE-B033-78E3556D2134";
name = Regular;
paths = (
{
closed = 1;
nodes = (
"29 -112 OFFCURVE",
"-76 -120 OFFCURVE",
"-98 -116 CURVE",
"-94 -85 LINE",
"-71 -89 OFFCURVE",
"18 -77 OFFCURVE",
"30 -61 CURVE SMOOTH",
"113 43 OFFCURVE",
"241 450 OFFCURVE",
"275 587 CURVE SMOOTH",
"295 669 OFFCURVE",
"295 696 OFFCURVE",
"294 703 CURVE",
"263 714 OFFCURVE",
"218 704 OFFCURVE",
"202 700 CURVE",
"193 730 LINE",
"229 742 OFFCURVE",
"314 752 OFFCURVE",
"325 712 CURVE SMOOTH",
"326 705 OFFCURVE",
"331 682 OFFCURVE",
"304 571 CURVE SMOOTH",
"274 446 OFFCURVE",
"140 26 OFFCURVE",
"55 -81 CURVE SMOOTH"
);
}
);
width = 273;
}
);
unicode = 005D;
},
{
glyphname = parenleft;
layers = (
{
layerId = "B2224B7D-3358-49DE-B033-78E3556D2134";
name = Regular;
paths = (
{
closed = 1;
nodes = (
"5 76 OFFCURVE",
"27 234 OFFCURVE",
"78 369 CURVE SMOOTH",
"125 502 OFFCURVE",
"207 634 OFFCURVE",
"309 724 CURVE",
"331 700 LINE",
"141 533 OFFCURVE",
"25 219 OFFCURVE",
"48 -63 CURVE",
"17 -65 LINE"
);
}
);
width = 182;
}
);
unicode = 0028;
},
{
glyphname = parenright;
layers = (
{
layerId = "B2224B7D-3358-49DE-B033-78E3556D2134";
name = Regular;
paths = (
{
closed = 1;
nodes = (
"-58 -71 LINE",
"111 120 OFFCURVE",
"250 434 OFFCURVE",
"182 700 CURVE",
"212 707 LINE",
"285 431 OFFCURVE",
"140 106 OFFCURVE",
"-34 -92 CURVE"
);
}
);
width = 219;
}
);
unicode = 0029;
},
{
glyphname = emdash;
layers = (
{
layerId = "B2224B7D-3358-49DE-B033-78E3556D2134";
name = Regular;
paths = (
{
closed = 1;
nodes = (
"105 283 OFFCURVE",
"111 284 OFFCURVE",
"48 289 CURVE",
"64 328 LINE",
"163 321 OFFCURVE",
"213 323 OFFCURVE",
"311 323 CURVE SMOOTH",
"357 323 OFFCURVE",
"492 325 OFFCURVE",
"528 325 CURVE",
"515 286 LINE",
"480 286 OFFCURVE",
"344 284 OFFCURVE",
"299 284 CURVE SMOOTH",
"263 284 OFFCURVE",
"189 283 OFFCURVE",
"153 283 CURVE SMOOTH"
);
}
);
width = 550;
}
);
unicode = 2014;
},
{
glyphname = endash;
layers = (
{
layerId = "B2224B7D-3358-49DE-B033-78E3556D2134";
name = Regular;
paths = (
{
closed = 1;
nodes = (
"112 283 OFFCURVE",
"112 284 OFFCURVE",
"49 289 CURVE",
"65 328 LINE",
"164 321 OFFCURVE",
"314 322 OFFCURVE",
"412 323 CURVE SMOOTH",
"448 323 OFFCURVE",
"442 325 OFFCURVE",
"478 325 CURVE",
"465 286 LINE",
"430 286 OFFCURVE",
"435 284 OFFCURVE",
"400 284 CURVE SMOOTH",
"364 283 OFFCURVE",
"212 283 OFFCURVE",
"176 283 CURVE SMOOTH"
);
}
);
width = 500;
}
);
unicode = 2013;
},
{
glyphname = hyphen;
layers = (
{
layerId = "B2224B7D-3358-49DE-B033-78E3556D2134";
name = Regular;
paths = (
{
closed = 1;
nodes = (
"263 286 OFFCURVE",
"134 282 OFFCURVE",
"48 289 CURVE",
"63 328 LINE",
"152 321 OFFCURVE",
"274 325 OFFCURVE",
"310 325 CURVE",
"298 286 LINE"
);
}
);
width = 300;
}
);
unicode = 002D;
},
{
glyphname = guillemotleft;
layers = (
{
layerId = "B2224B7D-3358-49DE-B033-78E3556D2134";
name = Regular;
paths = (
{
closed = 1;
nodes = (
"73 111 OFFCURVE",
"36 147 OFFCURVE",
"33 188 CURVE SMOOTH",
"32 220 OFFCURVE",
"56 243 OFFCURVE",
"73 258 CURVE SMOOTH",
"95 278 OFFCURVE",
"125 297 OFFCURVE",
"160 320 CURVE SMOOTH",
"198 344 OFFCURVE",
"241 372 OFFCURVE",
"287 407 CURVE",
"314 373 LINE",
"267 337 OFFCURVE",
"223 308 OFFCURVE",
"185 283 CURVE SMOOTH",
"126 245 OFFCURVE",
"75 214 OFFCURVE",
"76 189 CURVE SMOOTH",
"76 168 OFFCURVE",
"113 139 OFFCURVE",
"185 99 CURVE",
"165 60 LINE"
);
},
{
closed = 1;
nodes = (
"306 104 OFFCURVE",
"268 141 OFFCURVE",
"266 182 CURVE SMOOTH",
"265 213 OFFCURVE",
"289 237 OFFCURVE",
"306 252 CURVE SMOOTH",
"327 271 OFFCURVE",
"358 290 OFFCURVE",
"393 313 CURVE SMOOTH",
"431 338 OFFCURVE",
"475 366 OFFCURVE",
"520 400 CURVE",
"547 367 LINE",
"500 330 OFFCURVE",
"455 301 OFFCURVE",
"418 277 CURVE SMOOTH",
"359 239 OFFCURVE",
"308 208 OFFCURVE",
"309 183 CURVE SMOOTH",
"309 160 OFFCURVE",
"347 132 OFFCURVE",
"418 92 CURVE",
"397 54 LINE"
);
}
);
width = 552;
}
);
unicode = 00AB;
},
{
glyphname = guillemotright;
layers = (
{
layerId = "B2224B7D-3358-49DE-B033-78E3556D2134";
name = Regular;
paths = (
{
closed = 1;
nodes = (
"227 88 LINE",
"272 124 OFFCURVE",
"318 150 OFFCURVE",
"357 172 CURVE SMOOTH",
"406 200 OFFCURVE",
"448 224 OFFCURVE",
"448 245 CURVE SMOOTH",
"451 271 OFFCURVE",
"381 323 OFFCURVE",
"319 363 CURVE",
"341 398 LINE",
"410 356 OFFCURVE",
"492 301 OFFCURVE",
"490 243 CURVE SMOOTH",
"490 214 OFFCURVE",
"469 195 OFFCURVE",
"453 183 CURVE SMOOTH",
"433 167 OFFCURVE",
"407 153 OFFCURVE",
"377 135 CURVE SMOOTH",
"339 113 OFFCURVE",
"295 88 OFFCURVE",
"253 55 CURVE"
);
},
{
closed = 1;
nodes = (
"4 99 LINE",
"49 135 OFFCURVE",
"95 161 OFFCURVE",
"134 183 CURVE SMOOTH",
"183 211 OFFCURVE",
"225 235 OFFCURVE",
"225 256 CURVE SMOOTH",
"228 282 OFFCURVE",
"158 334 OFFCURVE",
"96 374 CURVE",
"118 409 LINE",
"187 367 OFFCURVE",
"269 312 OFFCURVE",
"267 254 CURVE SMOOTH",
"267 225 OFFCURVE",
"246 206 OFFCURVE",
"230 194 CURVE SMOOTH",
"210 178 OFFCURVE",
"184 164 OFFCURVE",
"154 146 CURVE SMOOTH",
"116 124 OFFCURVE",
"72 99 OFFCURVE",
"30 66 CURVE"
);
}
);
width = 544;
}
);
unicode = 00BB;
},
{
glyphname = guilsinglleft;
layers = (
{
layerId = "B2224B7D-3358-49DE-B033-78E3556D2134";
name = Regular;
paths = (
{
closed = 1;
nodes = (
"73 111 OFFCURVE",
"36 147 OFFCURVE",
"33 188 CURVE SMOOTH",
"32 220 OFFCURVE",
"56 243 OFFCURVE",
"73 258 CURVE SMOOTH",
"95 278 OFFCURVE",
"125 297 OFFCURVE",
"160 320 CURVE SMOOTH",
"198 344 OFFCURVE",
"241 372 OFFCURVE",
"287 407 CURVE",
"314 373 LINE",
"267 337 OFFCURVE",
"223 308 OFFCURVE",
"185 283 CURVE SMOOTH",
"126 245 OFFCURVE",
"75 214 OFFCURVE",
"76 189 CURVE SMOOTH",
"76 168 OFFCURVE",
"113 139 OFFCURVE",
"185 99 CURVE",
"165 60 LINE"
);
}
);
width = 317;
}
);
unicode = 2039;
},
{
glyphname = guilsinglright;
layers = (
{
layerId = "B2224B7D-3358-49DE-B033-78E3556D2134";
name = Regular;
paths = (
{
closed = 1;
nodes = (
"1 90 LINE",
"46 126 OFFCURVE",
"92 152 OFFCURVE",
"131 174 CURVE SMOOTH",
"180 202 OFFCURVE",
"222 226 OFFCURVE",
"222 247 CURVE SMOOTH",
"225 273 OFFCURVE",
"155 325 OFFCURVE",
"93 365 CURVE",
"115 400 LINE",
"184 358 OFFCURVE",
"266 303 OFFCURVE",
"264 245 CURVE SMOOTH",
"264 216 OFFCURVE",
"243 197 OFFCURVE",
"227 185 CURVE SMOOTH",
"207 169 OFFCURVE",
"181 155 OFFCURVE",
"151 137 CURVE SMOOTH",
"113 115 OFFCURVE",
"69 90 OFFCURVE",
"27 57 CURVE"
);
}
);
width = 317;
}
);
unicode = 203A;
},
{
glyphname = quoteleft;
layers = (
{
layerId = "B2224B7D-3358-49DE-B033-78E3556D2134";
name = Regular;
paths = (
{
closed = 1;
nodes = (
"140 479 OFFCURVE",
"134 485 OFFCURVE",
"130 491 CURVE SMOOTH",
"119 510 OFFCURVE",
"121 536 OFFCURVE",
"137 576 CURVE SMOOTH",
"148 600 OFFCURVE",
"164 630 OFFCURVE",
"181 654 CURVE",
"217 630 LINE",
"202 607 OFFCURVE",
"187 582 OFFCURVE",
"178 561 CURVE SMOOTH",
"167 532 OFFCURVE",
"166 519 OFFCURVE",
"167 516 CURVE",
"169 515 OFFCURVE",
"171 515 OFFCURVE",
"175 516 CURVE",
"181 472 LINE",
"168 471 OFFCURVE",
"159 472 OFFCURVE",
"151 475 CURVE SMOOTH"
);
}
);
width = 148;
}
);
unicode = 2018;
},
{
glyphname = quoteright;
layers = (
{
layerId = "B2224B7D-3358-49DE-B033-78E3556D2134";
name = Regular;
paths = (
{
closed = 1;
nodes = (
"204 637 OFFCURVE",
"210 631 OFFCURVE",
"213 625 CURVE SMOOTH",
"224 606 OFFCURVE",
"222 579 OFFCURVE",
"206 539 CURVE SMOOTH",
"196 516 OFFCURVE",
"180 486 OFFCURVE",
"162 462 CURVE",
"126 486 LINE",
"141 509 OFFCURVE",
"157 534 OFFCURVE",
"165 554 CURVE SMOOTH",
"177 584 OFFCURVE",
"177 597 OFFCURVE",
"176 600 CURVE",
"175 601 OFFCURVE",
"172 601 OFFCURVE",
"169 600 CURVE",
"162 644 LINE",
"176 645 OFFCURVE",
"185 644 OFFCURVE",
"192 641 CURVE SMOOTH"
);
}
);
width = 148;
}
);
unicode = 2019;
},
{
glyphname = dollar;
layers = (
{
layerId = "B2224B7D-3358-49DE-B033-78E3556D2134";
name = Regular;
paths = (
{
closed = 1;
nodes = (
"395 717 LINE",
"382 679 OFFCURVE",
"368 639 OFFCURVE",
"352 598 CURVE",
"270 581 OFFCURVE",
"148 526 OFFCURVE",
"128 434 CURVE",
"117 370 OFFCURVE",
"159 330 OFFCURVE",
"234 309 CURVE",
"234 309 OFFCURVE",
"234 309 OFFCURVE",
"235 309 CURVE",
"234 307 OFFCURVE",
"159 126 OFFCURVE",
"125 39 CURVE",
"73 30 OFFCURVE",
"17 32 OFFCURVE",
"-38 51 CURVE",
"-51 9 LINE",
"7 -10 OFFCURVE",
"61 -13 OFFCURVE",
"107 -8 CURVE",
"93 -46 OFFCURVE",
"63 -122 OFFCURVE",
"55 -148 CURVE",
"97 -159 LINE",
"104 -135 OFFCURVE",
"138 -45 OFFCURVE",
"156 1 CURVE",
"191 9 OFFCURVE",
"267 33 OFFCURVE",
"328 89 CURVE SMOOTH",
"380 138 OFFCURVE",
"402 192 OFFCURVE",
"390 241 CURVE SMOOTH",
"382 271 OFFCURVE",
"358 308 OFFCURVE",
"293 335 CURVE",
"325 413 OFFCURVE",
"356 488 OFFCURVE",
"384 560 CURVE",
"431 567 OFFCURVE",
"480 566 OFFCURVE",
"530 558 CURVE",
"538 601 LINE",
"491 609 OFFCURVE",
"445 610 OFFCURVE",
"401 606 CURVE",
"413 639 OFFCURVE",
"424 672 OFFCURVE",
"435 704 CURVE"
);
},
{
closed = 1;
nodes = (
"236 354 OFFCURVE",
"159 371 OFFCURVE",
"170 426 CURVE SMOOTH",
"183 486 OFFCURVE",
"277 533 OFFCURVE",
"333 549 CURVE",
"308 485 OFFCURVE",
"280 418 OFFCURVE",
"252 349 CURVE"
);
},
{
closed = 1;
nodes = (
"356 198 OFFCURVE",
"339 158 OFFCURVE",
"299 120 CURVE SMOOTH",
"268 92 OFFCURVE",
"225 67 OFFCURVE",
"176 51 CURVE",
"206 129 OFFCURVE",
"275 292 OFFCURVE",
"277 296 CURVE",
"317 279 OFFCURVE",
"341 257 OFFCURVE",
"348 230 CURVE SMOOTH"
);
}
);
width = 444;
}
);
unicode = 0024;
},
{
glyphname = asciitilde;
layers = (
{
layerId = "B2224B7D-3358-49DE-B033-78E3556D2134";
name = Regular;
paths = (
{
closed = 1;
nodes = (
"331 244 OFFCURVE",
"302 271 OFFCURVE",
"282 297 CURVE SMOOTH",
"264 322 OFFCURVE",
"246 349 OFFCURVE",
"218 352 CURVE SMOOTH",
"188 357 OFFCURVE",
"146 337 OFFCURVE",
"93 294 CURVE",
"63 330 LINE",
"126 384 OFFCURVE",
"179 406 OFFCURVE",
"224 400 CURVE SMOOTH",
"273 394 OFFCURVE",
"300 355 OFFCURVE",
"321 325 CURVE SMOOTH",
"332 310 OFFCURVE",
"355 292 OFFCURVE",
"364 292 CURVE SMOOTH",
"364 292 OFFCURVE",
"364 292 OFFCURVE",
"364 292 CURVE SMOOTH",
"369 292 OFFCURVE",
"407 297 OFFCURVE",
"449 360 CURVE",
"488 333 LINE",
"447 271 OFFCURVE",
"396 244 OFFCURVE",
"364 244 CURVE SMOOTH",
"364 244 OFFCURVE",
"364 244 OFFCURVE",
"364 244 CURVE SMOOTH"
);
}
);
width = 506;
}
);
unicode = 007E;
},
{
glyphname = equal;
layers = (
{
layerId = "B2224B7D-3358-49DE-B033-78E3556D2134";
name = Regular;
paths = (
{
closed = 1;
nodes = (
"50 248 LINE",
"117 248 OFFCURVE",
"161 251 OFFCURVE",
"205 252 CURVE SMOOTH",
"337 254 OFFCURVE",
"458 256 OFFCURVE",
"525 256 CURVE",
"515 214 LINE",
"448 214 OFFCURVE",
"328 213 OFFCURVE",
"197 210 CURVE SMOOTH",
"153 209 OFFCURVE",
"107 206 OFFCURVE",
"40 206 CURVE"
);
},
{
closed = 1;
nodes = (
"111 358 LINE",
"121 399 LINE",
"618 399 LINE",
"608 358 LINE"
);
}
);
width = 605;
}
);
unicode = 003D;
},
{
glyphname = greater;
layers = (
{
layerId = "B2224B7D-3358-49DE-B033-78E3556D2134";
name = Regular;
paths = (
{
closed = 1;
nodes = (
"294 518 OFFCURVE",
"354 446 OFFCURVE",
"395 403 CURVE SMOOTH",
"438 361 OFFCURVE",
"458 341 OFFCURVE",
"448 312 CURVE SMOOTH",
"438 285 OFFCURVE",
"407 267 OFFCURVE",
"348 231 CURVE SMOOTH",
"274 186 OFFCURVE",
"153 120 OFFCURVE",
"-34 -31 CURVE",
"-57 0 LINE",
"134 155 OFFCURVE",
"257 221 OFFCURVE",
"333 267 CURVE SMOOTH",
"352 278 OFFCURVE",
"420 314 OFFCURVE",
"408 332 CURVE SMOOTH",
"400 344 OFFCURVE",
"385 355 OFFCURVE",
"370 373 CURVE SMOOTH",
"327 414 OFFCURVE",
"265 488 OFFCURVE",
"183 602 CURVE",
"213 630 LINE"
);
}
);
width = 473;
}
);
unicode = 003E;
},
{
glyphname = less;
layers = (
{
layerId = "B2224B7D-3358-49DE-B033-78E3556D2134";
name = Regular;
paths = (
{
closed = 1;
nodes = (
"237 132 OFFCURVE",
"156 201 OFFCURVE",
"111 239 CURVE SMOOTH",
"79 268 OFFCURVE",
"63 281 OFFCURVE",
"72 307 CURVE SMOOTH",
"80 332 OFFCURVE",
"108 348 OFFCURVE",
"169 380 CURVE SMOOTH",
"244 423 OFFCURVE",
"371 494 OFFCURVE",
"572 641 CURVE",
"596 603 LINE",
"389 454 OFFCURVE",
"259 382 OFFCURVE",
"183 338 CURVE SMOOTH",
"157 324 OFFCURVE",
"116 310 OFFCURVE",
"116 296 CURVE SMOOTH",
"116 288 OFFCURVE",
"136 277 OFFCURVE",
"148 265 CURVE SMOOTH",
"192 226 OFFCURVE",
"270 158 OFFCURVE",
"365 0 CURVE",
"330 -23 LINE"
);
}
);
width = 515;
}
);
unicode = 003C;
},
{
glyphname = percent;
layers = (
{
layerId = "B2224B7D-3358-49DE-B033-78E3556D2134";
name = Regular;
paths = (
{
closed = 1;
nodes = (
"20 0 LINE",
"156 227 OFFCURVE",
"302 427 OFFCURVE",
"466 611 CURVE",
"489 590 LINE",
"327 407 OFFCURVE",
"183 209 OFFCURVE",
"47 -16 CURVE"
);
},
{
closed = 1;
nodes = (
"62 273 OFFCURVE",
"49 307 OFFCURVE",
"75 358 CURVE SMOOTH",
"91 385 OFFCURVE",
"117 424 OFFCURVE",
"154 473 CURVE",
"174 457 LINE",
"173 465 LINE",
"205 470 OFFCURVE",
"215 455 OFFCURVE",
"218 447 CURVE SMOOTH",
"227 423 OFFCURVE",
"201 389 OFFCURVE",
"181 366 CURVE SMOOTH",
"157 339 OFFCURVE",
"127 312 OFFCURVE",
"106 300 CURVE SMOOTH"
);
},
{
closed = 1;
nodes = (
"129 386 OFFCURVE",
"108 351 OFFCURVE",
"98 333 CURVE",
"110 341 OFFCURVE",
"127 355 OFFCURVE",
"144 373 CURVE SMOOTH",
"174 404 OFFCURVE",
"185 426 OFFCURVE",
"187 434 CURVE",
"185 434 OFFCURVE",
"182 434 OFFCURVE",
"178 433 CURVE",
"176 449 LINE"
);
},
{
closed = 1;
nodes = (
"306 63 OFFCURVE",
"255 49 OFFCURVE",
"253 109 CURVE SMOOTH",
"250 142 OFFCURVE",
"270 197 OFFCURVE",
"308 239 CURVE",
"301 253 LINE",
"319 262 OFFCURVE",
"335 268 OFFCURVE",
"349 272 CURVE",
"351 273 OFFCURVE",
"353 275 OFFCURVE",
"356 276 CURVE",
"357 274 LINE",
"360 274 OFFCURVE",
"363 275 OFFCURVE",
"366 275 CURVE SMOOTH",
"413 279 OFFCURVE",
"430 241 OFFCURVE",
"405 185 CURVE SMOOTH",
"393 158 OFFCURVE",
"374 131 OFFCURVE",
"352 109 CURVE SMOOTH"
);
},
{
closed = 1;
nodes = (
"281 95 OFFCURVE",
"287 91 OFFCURVE",
"329 131 CURVE SMOOTH",
"348 150 OFFCURVE",
"365 175 OFFCURVE",
"376 198 CURVE SMOOTH",
"390 230 OFFCURVE",
"393 249 OFFCURVE",
"361 242 CURVE",
"319 215 OFFCURVE",
"291 163 OFFCURVE",
"285 125 CURVE SMOOTH"
);
}
);
width = 444;
}
);
unicode = 0025;
},
{
glyphname = plus;
layers = (
{
layerId = "B2224B7D-3358-49DE-B033-78E3556D2134";
name = Regular;
paths = (
{
closed = 1;
nodes = (
"228 58 LINE",
"257 138 OFFCURVE",
"260 161 OFFCURVE",
"280 229 CURVE SMOOTH",
"313 345 OFFCURVE",
"328 405 OFFCURVE",
"393 535 CURVE",
"432 514 LINE",
"369 389 OFFCURVE",
"355 330 OFFCURVE",
"322 217 CURVE SMOOTH",
"302 149 OFFCURVE",
"299 123 OFFCURVE",
"269 43 CURVE"
);
},
{
closed = 1;
nodes = (
"64 284 LINE",
"84 328 LINE",
"592 328 LINE",
"572 284 LINE"
);
}
);
width = 600;
}
);
unicode = 002B;
},
{
glyphname = ampersand;
layers = (
{
layerId = "B2224B7D-3358-49DE-B033-78E3556D2134";
name = Regular;
paths = (
{
closed = 1;
nodes = (
"345 685 LINE",
"310 700 LINE",
"308 691 LINE",
"288 645 OFFCURVE",
"270 601 OFFCURVE",
"257 553 CURVE",
"223 538 OFFCURVE",
"189 516 OFFCURVE",
"155 485 CURVE SMOOTH",
"113 449 OFFCURVE",
"76 404 OFFCURVE",
"87 357 CURVE SMOOTH",
"98 314 OFFCURVE",
"146 293 OFFCURVE",
"183 283 CURVE",
"172 277 OFFCURVE",
"60 218 OFFCURVE",
"40 170 CURVE SMOOTH",
"28 141 OFFCURVE",
"21 117 OFFCURVE",
"23 95 CURVE",
"24 63 OFFCURVE",
"39 42 OFFCURVE",
"65 33 CURVE",
"53 -20 OFFCURVE",
"35 -49 OFFCURVE",
"18 -103 CURVE",
"55 -113 LINE",
"74 -52 OFFCURVE",
"83 -44 OFFCURVE",
"103 27 CURVE",
"120 27 OFFCURVE",
"146 31 OFFCURVE",
"178 49 CURVE",
"157 81 LINE",
"84 32 OFFCURVE",
"35 75 OFFCURVE",
"73 157 CURVE SMOOTH",
"88 190 OFFCURVE",
"158 227 OFFCURVE",
"196 249 CURVE",
"233 268 OFFCURVE",
"246 274 OFFCURVE",
"246 285 CURVE SMOOTH",
"246 301 OFFCURVE",
"242 304 OFFCURVE",
"226 310 CURVE",
"151 327 OFFCURVE",
"128 349 OFFCURVE",
"123 365 CURVE SMOOTH",
"116 389 OFFCURVE",
"137 420 OFFCURVE",
"181 458 CURVE SMOOTH",
"250 520 OFFCURVE",
"313 543 OFFCURVE",
"388 536 CURVE",
"390 574 LINE",
"359 577 OFFCURVE",
"330 575 OFFCURVE",
"301 568 CURVE",
"313 604 OFFCURVE",
"327 640 OFFCURVE",
"342 677 CURVE SMOOTH"
);
}
);
width = 299;
}
);
unicode = 0026;
},
{
glyphname = at;
layers = (
{
layerId = "B2224B7D-3358-49DE-B033-78E3556D2134";
name = Regular;
paths = (
{
closed = 1;
nodes = (
"262 2 OFFCURVE",
"157 -34 OFFCURVE",
"96 5 CURVE SMOOTH",
"35 38 OFFCURVE",
"13 130 OFFCURVE",
"37 243 CURVE SMOOTH",
"55 323 OFFCURVE",
"93 409 OFFCURVE",
"152 476 CURVE SMOOTH",
"218 554 OFFCURVE",
"302 599 OFFCURVE",
"394 608 CURVE SMOOTH",
"555 626 OFFCURVE",
"562 505 OFFCURVE",
"473 362 CURVE SMOOTH",
"423 281 OFFCURVE",
"321 158 OFFCURVE",
"276 193 CURVE SMOOTH",
"260 207 OFFCURVE",
"263 232 OFFCURVE",
"267 250 CURVE",
"255 239 OFFCURVE",
"243 230 OFFCURVE",
"232 224 CURVE SMOOTH",
"201 207 OFFCURVE",
"172 209 OFFCURVE",
"148 232 CURVE SMOOTH",
"105 275 OFFCURVE",
"177 355 OFFCURVE",
"239 396 CURVE SMOOTH",
"265 413 OFFCURVE",
"314 440 OFFCURVE",
"350 429 CURVE",
"348 423 LINE",
"348 423 OFFCURVE",
"358 423 OFFCURVE",
"368 422 CURVE",
"371 408 LINE SMOOTH",
"372 404 OFFCURVE",
"349 355 OFFCURVE",
"339 334 CURVE SMOOTH",
"307 265 OFFCURVE",
"301 237 OFFCURVE",
"301 225 CURVE",
"311 231 OFFCURVE",
"334 246 OFFCURVE",
"368 283 CURVE SMOOTH",
"406 325 OFFCURVE",
"440 374 OFFCURVE",
"463 420 CURVE SMOOTH",
"515 524 OFFCURVE",
"507 581 OFFCURVE",
"398 571 CURVE SMOOTH",
"219 553 OFFCURVE",
"105 384 OFFCURVE",
"73 236 CURVE SMOOTH",
"54 140 OFFCURVE",
"69 63 OFFCURVE",
"114 37 CURVE SMOOTH",
"179 2 OFFCURVE",
"279 69 OFFCURVE",
"368 150 CURVE",
"394 123 LINE"
);
},
{
closed = 1;
nodes = (
"310 391 OFFCURVE",
"288 383 OFFCURVE",
"260 364 CURVE SMOOTH",
"216 335 OFFCURVE",
"159 274 OFFCURVE",
"174 259 CURVE SMOOTH",
"199 234 OFFCURVE",
"239 267 OFFCURVE",
"286 331 CURVE SMOOTH",
"302 355 OFFCURVE",
"317 378 OFFCURVE",
"325 393 CURVE"
);
}
);
width = 491;
}
);
unicode = 0040;
},
{
glyphname = bar;
layers = (
{
layerId = "B2224B7D-3358-49DE-B033-78E3556D2134";
name = Regular;
paths = (
{
closed = 1;
nodes = (
"-26 -86 LINE",
"-1 -19 OFFCURVE",
"23 46 OFFCURVE",
"50 116 CURVE SMOOTH",
"124 310 OFFCURVE",
"199 509 OFFCURVE",
"248 700 CURVE",
"280 691 LINE",
"231 498 OFFCURVE",
"155 298 OFFCURVE",
"81 105 CURVE SMOOTH",
"54 35 OFFCURVE",
"29 -32 OFFCURVE",
"5 -97 CURVE"
);
}
);
width = 218;
}
);
unicode = 007C;
},
{
glyphname = copyright;
layers = (
{
layerId = "B2224B7D-3358-49DE-B033-78E3556D2134";
name = Regular;
paths = (
{
closed = 1;
nodes = (
"368 -14 OFFCURVE",
"225 -38 OFFCURVE",
"87 17 CURVE SMOOTH",
"35 35 OFFCURVE",
"16 87 OFFCURVE",
"22 145 CURVE SMOOTH",
"29 205 OFFCURVE",
"61 286 OFFCURVE",
"111 362 CURVE",
"104 365 LINE",
"155 466 OFFCURVE",
"204 537 OFFCURVE",
"252 577 CURVE SMOOTH",
"309 625 OFFCURVE",
"353 620 OFFCURVE",
"380 608 CURVE SMOOTH",
"429 585 OFFCURVE",
"464 518 OFFCURVE",
"475 424 CURVE SMOOTH",
"485 335 OFFCURVE",
"475 239 OFFCURVE",
"440 158 CURVE SMOOTH"
);
},
{
closed = 1;
nodes = (
"280 480 LINE",
"250 475 OFFCURVE",
"197 424 OFFCURVE",
"150 356 CURVE SMOOTH",
"97 281 OFFCURVE",
"62 200 OFFCURVE",
"57 141 CURVE SMOOTH",
"52 92 OFFCURVE",
"67 62 OFFCURVE",
"100 48 CURVE SMOOTH",
"290 -26 OFFCURVE",
"375 93 OFFCURVE",
"408 170 CURVE SMOOTH",
"439 242 OFFCURVE",
"450 336 OFFCURVE",
"441 419 CURVE SMOOTH",
"433 481 OFFCURVE",
"409 557 OFFCURVE",
"366 576 CURVE SMOOTH",
"340 588 OFFCURVE",
"309 580 OFFCURVE",
"274 550 CURVE SMOOTH",
"254 533 OFFCURVE",
"234 511 OFFCURVE",
"213 481 CURVE",
"235 500 OFFCURVE",
"255 511 OFFCURVE",
"273 514 CURVE"
);
},
{
closed = 1;
nodes = (
"216 128 OFFCURVE",
"181 142 OFFCURVE",
"166 169 CURVE SMOOTH",
"153 193 OFFCURVE",
"156 223 OFFCURVE",
"177 258 CURVE SMOOTH",
"195 289 OFFCURVE",
"225 320 OFFCURVE",
"260 343 CURVE SMOOTH",
"297 369 OFFCURVE",
"335 382 OFFCURVE",
"368 381 CURVE",
"367 347 LINE",
"367 347 OFFCURVE",
"366 347 OFFCURVE",
"366 347 CURVE SMOOTH",
"311 347 OFFCURVE",
"236 291 OFFCURVE",
"207 240 CURVE SMOOTH",
"199 228 OFFCURVE",
"188 203 OFFCURVE",
"196 186 CURVE SMOOTH",
"204 171 OFFCURVE",
"231 163 OFFCURVE",
"270 163 CURVE",
"270 128 LINE"
);
}
);
width = 522;
}
);
unicode = 00A9;
},
{
glyphname = asciicircum;
layers = (
{
layerId = "B2224B7D-3358-49DE-B033-78E3556D2134";
name = Regular;
paths = (
{
closed = 1;
nodes = (
"360 481 OFFCURVE",
"366 556 OFFCURVE",
"374 606 CURVE",
"330 563 OFFCURVE",
"256 495 OFFCURVE",
"135 399 CURVE",
"103 439 LINE",
"254 558 OFFCURVE",
"330 634 OFFCURVE",
"367 670 CURVE SMOOTH",
"382 685 OFFCURVE",
"404 714 OFFCURVE",
"427 700 CURVE SMOOTH",
"446 690 OFFCURVE",
"440 669 OFFCURVE",
"436 650 CURVE SMOOTH",
"426 612 OFFCURVE",
"404 525 OFFCURVE",
"424 396 CURVE",
"376 387 LINE"
);
}
);
width = 419;
}
);
unicode = 005E;
},
